<?xml version="1.0" encoding="utf-8"?>
<!-- Generator: Adobe Illustrator 18.1.0, SVG Export Plug-In . SVG Version: 6.00 Build 0)  -->
<svg version="1.1" id="Layer_1" xmlns="http://www.w3.org/2000/svg" xmlns:xlink="http://www.w3.org/1999/xlink" x="0px" y="0px"
	 viewBox="0 0 612 164" style="enable-background:new 0 0 612 164;" xml:space="preserve">
<style type="text/css">
	.st0{fill:none;}
	.st1{opacity:0.37;}
	.st2{font-family:'Georgia';}
	.st3{font-size:90;}
	.st4{letter-spacing:-3;}
	.st5{fill:none;stroke:#000000;stroke-miterlimit:10;}
</style>
<g>
	<polygon class="st0" points="55.353,141.633 38.768,141.633 49.521,156.433 	"/>
	<polygon class="st0" points="71.328,145.034 70.22,141.633 66.705,141.633 65.578,145.034 	"/>
	<polygon class="st0" points="262.275,141.883 262.268,141.633 261.935,141.633 262.075,141.883 	"/>
	<polygon class="st0" points="586.272,141.883 586.266,141.633 585.932,141.633 586.072,141.883 	"/>
	<path class="st0" d="M597.072,141.633v17.7h-12.15l-9.8-16.9h-0.2l0.5,16.9h-11.3v-17.7h-4.009
		c-0.023,2.754-0.515,5.273-1.491,7.55c-1,2.333-2.384,4.325-4.149,5.975c-1.768,1.65-3.851,2.925-6.25,3.825
		c-2.4,0.9-5,1.35-7.801,1.35c-2.8,0-5.399-0.45-7.8-1.35c-2.399-0.9-4.475-2.175-6.225-3.825c-1.75-1.65-3.125-3.642-4.125-5.975
		c-0.976-2.277-1.467-4.796-1.491-7.55h-4.299c0.397,0.452,0.766,0.93,1.089,1.45c0.767,1.233,1.15,2.767,1.15,4.6
		c0,2.133-0.425,3.992-1.275,5.575c-0.85,1.584-1.967,2.9-3.35,3.95c-1.384,1.05-2.942,1.833-4.675,2.35
		c-1.733,0.516-3.5,0.775-5.3,0.775c-1.434,0-2.843-0.125-4.226-0.373c-1.384-0.25-2.717-0.614-4-1.095
		c-1.283-0.481-2.492-1.044-3.625-1.691c-1.134-0.647-2.149-1.368-3.05-2.164l7.25-7.877c0.833,0.9,1.941,1.7,3.325,2.4
		c1.383,0.7,2.808,1.05,4.274,1.05c0.667,0,1.275-0.116,1.825-0.351c0.55-0.234,0.825-0.668,0.825-1.303
		c0-0.333-0.092-0.617-0.275-0.852c-0.184-0.233-0.508-0.476-0.975-0.726s-1.108-0.526-1.925-0.827
		c-0.817-0.3-1.843-0.651-3.075-1.052c-1.2-0.4-2.35-0.876-3.45-1.427c-1.1-0.551-2.075-1.228-2.925-2.029
		c-0.129-0.122-0.247-0.255-0.368-0.385h-12.556v17.7h-11.9v-17.7h-12.256c-1.041,1.414-2.435,2.542-4.227,3.35l8.983,14.35h-13.67
		l-6.781-12.65h-0.35v12.65h-11.55v-17.7h-5.6v4.5h-12.35v3.3h14v9.9h-25.2v-17.7h-8.623c0.191,0.093,0.385,0.169,0.574,0.275
		c0.8,0.45,1.516,1.017,2.149,1.7c0.633,0.684,1.133,1.475,1.5,2.375c0.366,0.9,0.55,1.9,0.55,3c0,1.934-0.392,3.559-1.175,4.875
		c-0.783,1.317-1.817,2.384-3.1,3.2c-1.284,0.817-2.75,1.4-4.4,1.75c-1.649,0.35-3.342,0.525-5.075,0.525h-16.05v-17.7h-4.009
		c-0.023,2.754-0.515,5.273-1.491,7.55c-1,2.333-2.384,4.325-4.149,5.975c-1.768,1.65-3.851,2.925-6.25,3.825
		c-2.4,0.9-5,1.35-7.801,1.35c-2.8,0-5.399-0.45-7.8-1.35c-2.399-0.9-4.475-2.175-6.225-3.825c-1.75-1.65-3.125-3.642-4.125-5.975
		c-0.976-2.277-1.467-4.796-1.491-7.55h-5.515c-1.041,1.414-2.435,2.542-4.227,3.35l8.983,14.35h-13.67l-6.781-12.65h-0.35v12.65
		h-11.55v-17.7h-17.1v17.7h-12.15l-9.8-16.9h-0.2l0.5,16.9h-11.3v-17.7h-5.6v4.5h-12.35v3.3h14v9.9h-25.2v-17.7h-5.601v4.5h-12.35
		v3.3h14v9.9h-25.2v-17.7h-14.449v7.45h11.75v10.25h-23.75v-17.7h-5.6v17.7h-11.899v-13.45h-9.7v13.45h-11.9v-17.7h-11.349v17.7
		h-11.9v-17.7H81.878l6.9,17.7h-12.95l-1.851-5.2h-11.25l-1.75,5.2h-9.35h-3.25h-11.35l-9.45-14.1h-0.1v14.1H15.928v-17.7H9.667
		v33.7H612v-33.7H597.072z"/>
	<path class="st0" d="M535.397,147.133c0.616,0.7,1.357,1.242,2.225,1.625c0.866,0.384,1.8,0.575,2.8,0.575s1.926-0.191,2.775-0.575
		c0.85-0.383,1.592-0.925,2.225-1.625c0.633-0.7,1.125-1.533,1.476-2.5c0.329-0.91,0.498-1.912,0.517-3H533.43
		c0.019,1.088,0.188,2.09,0.518,3C534.297,145.6,534.78,146.433,535.397,147.133z"/>
	<path class="st0" d="M337.899,147.133c0.616,0.7,1.357,1.242,2.225,1.625c0.866,0.384,1.8,0.575,2.8,0.575s1.926-0.191,2.775-0.575
		c0.85-0.383,1.592-0.925,2.225-1.625c0.633-0.7,1.125-1.533,1.476-2.5c0.329-0.91,0.498-1.912,0.517-3h-13.985
		c0.019,1.088,0.188,2.09,0.518,3C336.799,145.6,337.282,146.433,337.899,147.133z"/>
	<path class="st0" d="M381.274,149.983c0.933,0,1.691-0.208,2.274-0.625c0.583-0.417,0.875-1.025,0.875-1.825
		c0-0.467-0.125-0.85-0.375-1.15c-0.25-0.3-0.559-0.541-0.925-0.725c-0.367-0.183-0.759-0.308-1.175-0.375
		c-0.417-0.066-0.809-0.1-1.175-0.1h-3.05v4.8H381.274z"/>
	<polygon points="27.479,159.333 27.479,145.233 27.578,145.233 37.028,159.333 48.378,159.333 49.521,156.433 38.768,141.633 
		15.928,141.633 15.928,159.333 	"/>
	<polygon points="48.378,159.333 51.628,159.333 60.978,159.333 62.728,154.133 73.978,154.133 75.828,159.333 88.778,159.333 
		81.878,141.633 70.22,141.633 71.328,145.034 65.578,145.034 66.705,141.633 55.353,141.633 49.521,156.433 	"/>
	<rect x="93.027" y="141.633" width="11.9" height="17.7"/>
	<polygon points="128.177,159.333 128.177,145.883 137.877,145.883 137.877,159.333 149.776,159.333 149.776,141.633 
		116.276,141.633 116.276,159.333 	"/>
	<polygon points="179.126,159.333 179.126,149.083 167.376,149.083 167.376,141.633 155.376,141.633 155.376,159.333 	"/>
	<polygon points="207.025,159.333 207.025,149.433 193.025,149.433 193.025,146.133 205.375,146.133 205.375,141.633 
		181.825,141.633 181.825,159.333 	"/>
	<polygon points="236.176,159.333 236.176,149.433 222.176,149.433 222.176,146.133 234.525,146.133 234.525,141.633 
		210.976,141.633 210.976,159.333 	"/>
	<polygon points="251.425,159.333 250.925,142.433 251.125,142.433 260.925,159.333 273.075,159.333 273.075,141.633 
		262.268,141.633 262.275,141.883 262.075,141.883 261.935,141.633 240.125,141.633 240.125,159.333 	"/>
	<path d="M301.725,159.333v-12.65h0.35l6.781,12.65h13.67l-8.983-14.35c1.791-0.808,3.186-1.936,4.227-3.35h-27.594v17.7H301.725z"
		/>
	<path d="M328.899,155.159c1.75,1.65,3.825,2.925,6.225,3.825c2.4,0.9,5,1.35,7.8,1.35c2.801,0,5.4-0.45,7.801-1.35
		c2.399-0.9,4.482-2.175,6.25-3.825c1.766-1.65,3.149-3.642,4.149-5.975c0.976-2.277,1.467-4.796,1.491-7.55h-12.699
		c-0.019,1.088-0.188,2.09-0.517,3c-0.351,0.967-0.843,1.8-1.476,2.5c-0.633,0.7-1.375,1.242-2.225,1.625
		c-0.85,0.384-1.775,0.575-2.775,0.575s-1.934-0.191-2.8-0.575c-0.867-0.383-1.608-0.925-2.225-1.625
		c-0.617-0.7-1.101-1.533-1.45-2.5c-0.329-0.91-0.498-1.912-0.518-3h-12.648c0.023,2.754,0.515,5.273,1.491,7.55
		C325.774,151.517,327.149,153.508,328.899,155.159z"/>
	<path d="M382.674,159.333c1.733,0,3.426-0.175,5.075-0.525c1.65-0.35,3.116-0.933,4.4-1.75c1.282-0.816,2.316-1.883,3.1-3.2
		c0.783-1.316,1.175-2.941,1.175-4.875c0-1.1-0.184-2.1-0.55-3c-0.367-0.9-0.867-1.691-1.5-2.375c-0.634-0.683-1.35-1.25-2.149-1.7
		c-0.189-0.107-0.383-0.183-0.574-0.275h-25.027v17.7H382.674z M380.774,145.183c0.366,0,0.758,0.034,1.175,0.1
		c0.416,0.067,0.808,0.192,1.175,0.375c0.366,0.184,0.675,0.425,0.925,0.725c0.25,0.3,0.375,0.684,0.375,1.15
		c0,0.8-0.292,1.408-0.875,1.825c-0.583,0.417-1.342,0.625-2.274,0.625h-3.55v-4.8H380.774z"/>
	<polygon points="425.474,159.333 425.474,149.433 411.474,149.433 411.474,146.133 423.823,146.133 423.823,141.633 
		400.273,141.633 400.273,159.333 	"/>
	<path d="M440.973,159.333v-12.65h0.35l6.781,12.65h13.67l-8.983-14.35c1.791-0.808,3.186-1.936,4.227-3.35h-27.594v17.7H440.973z"
		/>
	<rect x="469.272" y="141.633" width="11.9" height="17.7"/>
	<path d="M497.022,144.047c1.101,0.551,2.25,1.027,3.45,1.427c1.232,0.401,2.258,0.752,3.075,1.052
		c0.816,0.301,1.458,0.577,1.925,0.827s0.791,0.492,0.975,0.726c0.184,0.234,0.275,0.518,0.275,0.852
		c0,0.635-0.275,1.069-0.825,1.303c-0.55,0.234-1.158,0.351-1.825,0.351c-1.467,0-2.892-0.35-4.274-1.05
		c-1.384-0.7-2.492-1.5-3.325-2.4l-7.25,7.877c0.9,0.796,1.916,1.517,3.05,2.164c1.133,0.647,2.342,1.21,3.625,1.691
		c1.283,0.48,2.616,0.845,4,1.095c1.383,0.248,2.792,0.373,4.226,0.373c1.8,0,3.566-0.259,5.3-0.775
		c1.732-0.517,3.291-1.3,4.675-2.35c1.383-1.05,2.5-2.366,3.35-3.95c0.851-1.583,1.275-3.441,1.275-5.575
		c0-1.833-0.384-3.367-1.15-4.6c-0.323-0.52-0.692-0.998-1.089-1.45h-22.754c0.121,0.13,0.239,0.262,0.368,0.385
		C494.947,142.819,495.923,143.496,497.022,144.047z"/>
	<path d="M526.397,155.159c1.75,1.65,3.825,2.925,6.225,3.825c2.4,0.9,5,1.35,7.8,1.35c2.801,0,5.4-0.45,7.801-1.35
		c2.399-0.9,4.482-2.175,6.25-3.825c1.766-1.65,3.149-3.642,4.149-5.975c0.976-2.277,1.467-4.796,1.491-7.55h-12.699
		c-0.019,1.088-0.188,2.09-0.517,3c-0.351,0.967-0.843,1.8-1.476,2.5c-0.633,0.7-1.375,1.242-2.225,1.625
		c-0.85,0.384-1.775,0.575-2.775,0.575s-1.934-0.191-2.8-0.575c-0.867-0.383-1.608-0.925-2.225-1.625
		c-0.617-0.7-1.101-1.533-1.45-2.5c-0.329-0.91-0.498-1.912-0.518-3h-12.648c0.023,2.754,0.515,5.273,1.491,7.55
		C523.272,151.517,524.647,153.508,526.397,155.159z"/>
	<polygon points="575.422,159.333 574.922,142.433 575.122,142.433 584.922,159.333 597.072,159.333 597.072,141.633 
		586.266,141.633 586.272,141.883 586.072,141.883 585.932,141.633 564.122,141.633 564.122,159.333 	"/>
</g>
<g>
	<path class="st0" d="M349.399,18.308c-0.351-0.95-0.843-1.75-1.476-2.4c-0.633-0.65-1.375-1.158-2.225-1.525
		c-0.85-0.366-1.775-0.55-2.775-0.55s-1.934,0.184-2.8,0.55c-0.867,0.367-1.608,0.875-2.225,1.525c-0.617,0.65-1.101,1.45-1.45,2.4
		c-0.35,0.95-0.525,1.992-0.525,3.125c0,0.068,0.006,0.133,0.008,0.2h13.985c0.001-0.067,0.008-0.132,0.008-0.2
		C349.924,20.301,349.749,19.258,349.399,18.308z"/>
	<path class="st0" d="M546.897,18.308c-0.351-0.95-0.843-1.75-1.476-2.4c-0.633-0.65-1.375-1.158-2.225-1.525
		c-0.85-0.366-1.775-0.55-2.775-0.55s-1.934,0.184-2.8,0.55c-0.867,0.367-1.608,0.875-2.225,1.525c-0.617,0.65-1.101,1.45-1.45,2.4
		c-0.35,0.95-0.525,1.992-0.525,3.125c0,0.068,0.006,0.133,0.008,0.2h13.985c0.001-0.067,0.008-0.132,0.008-0.2
		C547.422,20.301,547.247,19.258,546.897,18.308z"/>
	<path class="st0" d="M382.924,13.683c-0.566-0.333-1.316-0.5-2.25-0.5h-2.949v4.35h3.199c0.833,0,1.517-0.191,2.051-0.575
		c0.532-0.383,0.8-0.975,0.8-1.775C383.774,14.517,383.49,14.017,382.924,13.683z"/>
	<path class="st0" d="M446.082,13.608c-0.363-0.183-0.761-0.3-1.19-0.35c-0.43-0.05-0.826-0.075-1.19-0.075h-2.828v5.7h2.332
		c0.396,0,0.835-0.033,1.314-0.1c0.48-0.066,0.926-0.208,1.34-0.425c0.413-0.216,0.761-0.516,1.042-0.9
		c0.281-0.383,0.422-0.892,0.422-1.525c0-0.633-0.116-1.133-0.348-1.5C446.744,14.067,446.446,13.792,446.082,13.608z"/>
	<path class="st0" d="M306.834,13.608c-0.363-0.183-0.761-0.3-1.19-0.35c-0.43-0.05-0.826-0.075-1.19-0.075h-2.828v5.7h2.332
		c0.396,0,0.835-0.033,1.314-0.1c0.48-0.066,0.926-0.208,1.34-0.425c0.413-0.216,0.761-0.516,1.042-0.9
		c0.281-0.383,0.422-0.892,0.422-1.525c0-0.633-0.116-1.133-0.348-1.5C307.496,14.067,307.198,13.792,306.834,13.608z"/>
	<polygon class="st0" points="66.705,21.633 70.22,21.633 68.478,16.284 	"/>
	<polygon points="37.678,20.133 50.979,3.933 36.979,3.933 27.528,16.983 27.428,16.983 27.428,3.933 15.928,3.933 15.928,21.633 
		38.768,21.633 	"/>
	<polygon points="68.478,16.284 70.22,21.633 81.878,21.633 74.978,3.933 62.328,3.933 55.353,21.633 66.705,21.633 	"/>
	<polygon points="104.928,13.983 113.627,13.983 113.627,3.933 84.327,3.933 84.327,13.983 93.027,13.983 93.027,21.633 
		104.928,21.633 	"/>
	<polygon points="149.776,3.933 137.826,3.933 137.826,15.933 128.127,15.933 128.127,3.933 116.276,3.933 116.276,21.633 
		149.776,21.633 	"/>
	<rect x="155.376" y="3.933" width="12" height="17.7"/>
	<polygon points="205.375,16.883 193.025,16.883 193.025,13.833 206.176,13.833 206.176,3.933 181.825,3.933 181.825,21.633 
		205.375,21.633 	"/>
	<polygon points="234.525,16.883 222.176,16.883 222.176,13.833 235.326,13.833 235.326,3.933 210.976,3.933 210.976,21.633 
		234.525,21.633 	"/>
	<polygon points="273.075,3.933 261.775,3.933 262.268,21.633 273.075,21.633 	"/>
	<polygon points="251.976,3.933 240.125,3.933 240.125,21.633 261.935,21.633 	"/>
	<path d="M318.129,21.159c1.064-1.65,1.596-3.558,1.596-5.725c0-2.233-0.417-4.091-1.25-5.575c-0.833-1.483-1.925-2.667-3.274-3.55
		c-1.351-0.883-2.884-1.5-4.601-1.85s-3.441-0.525-5.175-0.525h-15.25v17.7h27.594C317.887,21.473,318.021,21.326,318.129,21.159z
		 M307.653,17.458c-0.281,0.384-0.629,0.684-1.042,0.9c-0.414,0.217-0.859,0.359-1.34,0.425c-0.479,0.067-0.918,0.1-1.314,0.1
		h-2.332v-5.7h2.828c0.364,0,0.761,0.025,1.19,0.075c0.43,0.05,0.827,0.167,1.19,0.35c0.364,0.184,0.662,0.458,0.894,0.825
		c0.231,0.367,0.348,0.867,0.348,1.5C308.075,16.567,307.935,17.076,307.653,17.458z"/>
	<path d="M335.924,21.433c0-1.133,0.176-2.175,0.525-3.125c0.35-0.95,0.833-1.75,1.45-2.4c0.616-0.65,1.357-1.158,2.225-1.525
		c0.866-0.366,1.8-0.55,2.8-0.55s1.926,0.184,2.775,0.55c0.85,0.367,1.592,0.875,2.225,1.525c0.633,0.65,1.125,1.45,1.476,2.4
		c0.35,0.95,0.524,1.992,0.524,3.125c0,0.068-0.006,0.133-0.008,0.2h12.699c0.001-0.068,0.009-0.132,0.009-0.2
		c0-2.833-0.5-5.392-1.5-7.675c-1-2.283-2.384-4.225-4.149-5.825c-1.768-1.6-3.851-2.833-6.25-3.7c-2.4-0.866-5-1.3-7.801-1.3
		c-2.8,0-5.399,0.434-7.8,1.3c-2.399,0.867-4.475,2.1-6.225,3.7s-3.125,3.542-4.125,5.825c-1,2.284-1.5,4.842-1.5,7.675
		c0,0.068,0.008,0.132,0.009,0.2h12.648C335.93,21.566,335.924,21.502,335.924,21.433z"/>
	<path d="M389.774,20.933v-0.15c1.566-0.6,2.825-1.517,3.774-2.75c0.95-1.233,1.426-2.8,1.426-4.7c0-2.033-0.45-3.675-1.351-4.925
		c-0.899-1.25-2.033-2.2-3.399-2.85c-1.367-0.65-2.859-1.083-4.476-1.3c-1.617-0.216-3.142-0.325-4.575-0.325h-14.55v17.7h25.027
		C391.034,21.335,390.41,21.086,389.774,20.933z M382.975,16.958c-0.534,0.384-1.218,0.575-2.051,0.575h-3.199v-4.35h2.949
		c0.934,0,1.684,0.167,2.25,0.5c0.566,0.333,0.851,0.833,0.851,1.5C383.774,15.983,383.507,16.576,382.975,16.958z"/>
	<polygon points="423.823,16.883 411.474,16.883 411.474,13.833 424.624,13.833 424.624,3.933 400.273,3.933 400.273,21.633 
		423.823,21.633 	"/>
	<path d="M457.377,21.159c1.064-1.65,1.596-3.558,1.596-5.725c0-2.233-0.417-4.091-1.25-5.575c-0.833-1.483-1.925-2.667-3.274-3.55
		c-1.351-0.883-2.884-1.5-4.601-1.85s-3.441-0.525-5.175-0.525h-15.25v17.7h27.594C457.135,21.473,457.269,21.326,457.377,21.159z
		 M446.901,17.458c-0.281,0.384-0.629,0.684-1.042,0.9c-0.414,0.217-0.859,0.359-1.34,0.425c-0.479,0.067-0.918,0.1-1.314,0.1
		h-2.332v-5.7h2.828c0.364,0,0.761,0.025,1.19,0.075c0.43,0.05,0.827,0.167,1.19,0.35c0.364,0.184,0.662,0.458,0.894,0.825
		c0.231,0.367,0.348,0.867,0.348,1.5C447.323,16.567,447.183,17.076,446.901,17.458z"/>
	<polygon points="481.173,13.983 489.873,13.983 489.873,3.933 460.572,3.933 460.572,13.983 469.272,13.983 469.272,21.633 
		481.173,21.633 	"/>
	<path d="M514.647,19.958c-1.184-0.85-2.475-1.542-3.875-2.075c-1.399-0.533-2.733-1-4-1.4c-1.233-0.4-2.125-0.733-2.675-1
		c-0.55-0.266-0.825-0.667-0.825-1.2c0-0.566,0.267-0.975,0.8-1.225s1.233-0.375,2.101-0.375c0.933,0,1.982,0.258,3.149,0.775
		c1.167,0.517,2.15,1.275,2.95,2.275l7.4-7.55c-1.834-1.7-3.959-3-6.375-3.9c-2.417-0.9-4.792-1.35-7.125-1.35
		c-1.733,0-3.483,0.217-5.25,0.651c-1.768,0.435-3.358,1.144-4.775,2.129c-1.417,0.985-2.575,2.246-3.475,3.782
		c-0.9,1.536-1.351,3.406-1.351,5.609c0,1.57,0.25,2.914,0.75,4.033c0.424,0.948,0.982,1.775,1.657,2.495h22.754
		C515.938,21.014,515.331,20.45,514.647,19.958z"/>
	<path d="M533.422,21.433c0-1.133,0.176-2.175,0.525-3.125c0.35-0.95,0.833-1.75,1.45-2.4c0.616-0.65,1.357-1.158,2.225-1.525
		c0.866-0.366,1.8-0.55,2.8-0.55s1.926,0.184,2.775,0.55c0.85,0.367,1.592,0.875,2.225,1.525c0.633,0.65,1.125,1.45,1.476,2.4
		c0.35,0.95,0.524,1.992,0.524,3.125c0,0.068-0.006,0.133-0.008,0.2h12.699c0.001-0.068,0.009-0.132,0.009-0.2
		c0-2.833-0.5-5.392-1.5-7.675c-1-2.283-2.384-4.225-4.149-5.825c-1.768-1.6-3.851-2.833-6.25-3.7c-2.4-0.866-5-1.3-7.801-1.3
		c-2.8,0-5.399,0.434-7.8,1.3c-2.399,0.867-4.475,2.1-6.225,3.7s-3.125,3.542-4.125,5.825c-1,2.284-1.5,4.842-1.5,7.675
		c0,0.068,0.008,0.132,0.009,0.2h12.648C533.428,21.566,533.422,21.502,533.422,21.433z"/>
	<polygon points="597.072,3.933 585.772,3.933 586.266,21.633 597.072,21.633 	"/>
	<polygon points="575.973,3.933 564.122,3.933 564.122,21.633 585.932,21.633 	"/>
</g>
<text transform="matrix(1 0 0 1 273.3005 112.3333)" class="st1 st2 st3 st4">&amp;</text>
<g>
	<path d="M38.227,46.572c0,3.491-0.97,6.175-2.909,8.052c-1.939,1.877-4.658,2.816-8.155,2.816c-3.497,0-6.215-0.938-8.154-2.816
		c-1.94-1.877-2.91-4.561-2.91-8.052V27.96h1.234v18.436c0,3.198,0.852,5.654,2.557,7.37c1.704,1.716,4.128,2.574,7.273,2.574
		c3.115,0,5.532-0.865,7.251-2.596c1.719-1.73,2.579-4.18,2.579-7.348V27.96h1.234V46.572z"/>
	<path d="M64.718,34.164l-1.014,0.792c-0.646-2.17-1.778-3.769-3.394-4.796c-1.616-1.026-3.718-1.54-6.303-1.54
		c-1.851,0-3.475,0.301-4.871,0.902c-1.396,0.602-2.468,1.416-3.218,2.442c-0.75,1.027-1.124,2.186-1.124,3.476
		c0,1.203,0.309,2.215,0.926,3.036c0.617,0.821,1.66,1.525,3.129,2.112c1.469,0.587,3.497,1.1,6.083,1.54
		c2.527,0.44,4.533,0.99,6.017,1.65c1.484,0.66,2.563,1.474,3.24,2.442c0.676,0.968,1.014,2.171,1.014,3.608
		c0,1.467-0.449,2.779-1.345,3.938c-0.896,1.159-2.153,2.061-3.769,2.706c-1.617,0.645-3.468,0.968-5.554,0.968
		c-3.115,0-5.723-0.638-7.824-1.914c-2.102-1.276-3.446-3.131-4.033-5.566l1.102-0.748c0.44,2.318,1.631,4.085,3.57,5.302
		c1.939,1.217,4.349,1.826,7.229,1.826c2.733,0,4.981-0.579,6.744-1.738c1.763-1.159,2.645-2.75,2.645-4.774
		c0-1.73-0.705-3.102-2.116-4.114c-1.411-1.012-3.82-1.796-7.229-2.354c-2.792-0.469-4.988-1.041-6.59-1.716
		c-1.602-0.674-2.748-1.503-3.438-2.486c-0.691-0.982-1.036-2.207-1.036-3.674c0-1.437,0.419-2.757,1.256-3.96
		c0.837-1.202,2.05-2.17,3.637-2.904c1.587-0.733,3.438-1.1,5.554-1.1C59.708,27.52,63.278,29.736,64.718,34.164z"/>
	<path d="M90.46,55.9V57H70.272V27.96h19.483v1.1H71.506v12.584h14.546v1.1H71.506V55.9H90.46z"/>
	<path d="M114.747,57l-8.64-12.98h-0.617h-9.389V57h-1.234V27.96h10.623c2.879,0,5.149,0.711,6.81,2.134
		c1.66,1.423,2.49,3.381,2.49,5.874c0,2.2-0.639,3.99-1.917,5.368c-1.278,1.379-3.064,2.229-5.356,2.552L116.158,57H114.747z
		 M111.441,41.072c1.41-1.202,2.116-2.904,2.116-5.104c0-2.17-0.706-3.864-2.116-5.082c-1.411-1.217-3.394-1.826-5.951-1.826h-9.389
		v13.816h9.389C108.047,42.876,110.031,42.275,111.441,41.072z"/>
	<path d="M152.213,55.9V57h-20.188V27.96h19.483v1.1h-18.249v12.584h14.546v1.1h-14.546V55.9H152.213z"/>
	<path d="M173.635,57l-9.565-13.904L154.328,57h-1.542l10.535-15.004l-9.609-14.036h1.499l8.904,13.024l9.125-13.024h1.499
		l-9.874,14.08L175.089,57H173.635z"/>
	<path d="M195.366,30.16c1.763,1.467,2.645,3.491,2.645,6.072c0,2.582-0.882,4.598-2.645,6.05c-1.763,1.452-4.188,2.178-7.273,2.178
		h-7.979V57h-1.234V27.96h9.212C191.178,27.96,193.603,28.694,195.366,30.16z M194.44,41.491c1.528-1.247,2.292-2.999,2.292-5.258
		c0-2.258-0.765-4.019-2.292-5.28c-1.528-1.261-3.673-1.892-6.436-1.892h-7.89v14.3h7.89
		C190.767,43.36,192.912,42.738,194.44,41.491z"/>
	<path d="M222.65,55.9V57h-20.188V27.96h19.483v1.1h-18.249v12.584h14.546v1.1h-14.546V55.9H222.65z"/>
	<path d="M246.937,57l-8.64-12.98h-0.617h-9.389V57h-1.234V27.96h10.623c2.879,0,5.149,0.711,6.81,2.134
		c1.66,1.423,2.49,3.381,2.49,5.874c0,2.2-0.639,3.99-1.917,5.368c-1.278,1.379-3.064,2.229-5.356,2.552L248.348,57H246.937z
		 M243.631,41.072c1.41-1.202,2.116-2.904,2.116-5.104c0-2.17-0.706-3.864-2.116-5.082c-1.411-1.217-3.394-1.826-5.951-1.826h-9.389
		v13.816h9.389C240.237,42.876,242.221,42.275,243.631,41.072z"/>
	<path d="M254.122,57h-1.234V27.96h1.234V57z"/>
	<path d="M281.626,55.9V57h-20.188V27.96h19.483v1.1h-18.249v12.584h14.546v1.1h-14.546V55.9H281.626z"/>
	<path d="M308.072,57h-1.63l-17.764-25.256l-1.499-2.508h-0.044l0.088,2.948V57h-1.19V27.96h1.587l17.808,25.256l1.499,2.464
		l-0.044-2.904V27.96h1.189V57z"/>
	<path d="M333.947,55.416c-2.027,1.35-4.481,2.024-7.361,2.024c-2.586,0-4.863-0.608-6.832-1.826
		c-1.969-1.217-3.497-2.955-4.584-5.214c-1.088-2.258-1.631-4.898-1.631-7.92c0-3.021,0.536-5.661,1.608-7.92
		c1.073-2.258,2.594-3.997,4.562-5.214s4.246-1.826,6.832-1.826c6.024,0,9.786,2.494,11.284,7.48l-1.189,0.572
		c-1.411-4.634-4.761-6.952-10.051-6.952c-2.351,0-4.407,0.565-6.171,1.694c-1.763,1.129-3.137,2.736-4.121,4.818
		c-0.985,2.083-1.477,4.532-1.477,7.348s0.491,5.266,1.477,7.348c0.984,2.083,2.358,3.689,4.121,4.818
		c1.764,1.129,3.82,1.694,6.171,1.694c2.615,0,4.827-0.616,6.635-1.848c1.807-1.232,3.033-2.977,3.681-5.236l1.233,0.44
		C337.371,52.16,335.976,54.067,333.947,55.416z"/>
	<path d="M362.995,55.9V57h-20.188V27.96h19.482v1.1h-18.248v12.584h14.546v1.1h-14.546V55.9H362.995z"/>
	<path d="M398.456,31.568c2.453,2.406,3.681,5.926,3.681,10.56c0,4.87-1.228,8.565-3.681,11.088
		C396.002,55.74,392.438,57,387.767,57h-9.036V27.96h9.036C392.438,27.96,396.002,29.163,398.456,31.568z M397.53,52.38
		c2.218-2.346,3.328-5.764,3.328-10.252c0-4.253-1.11-7.494-3.328-9.724c-2.22-2.229-5.459-3.344-9.72-3.344h-7.846V55.9h7.846
		C392.071,55.9,395.311,54.727,397.53,52.38z"/>
	<path d="M427.835,55.9V57h-20.188V27.96h19.482v1.1h-18.248v12.584h14.546v1.1h-14.546V55.9H427.835z"/>
	<path d="M441.542,57h-1.543l-11.372-29.04h1.322l9.521,24.244l1.322,3.564l1.323-3.564l9.521-24.244h1.278L441.542,57z"/>
	<path d="M476.894,55.9V57h-20.188V27.96h19.482v1.1h-18.248v12.584h14.546v1.1h-14.546V55.9H476.894z"/>
	<path d="M500.563,55.9V57h-19.263V27.96h1.234V55.9H500.563z"/>
	<path d="M520.377,29.347c2.013,1.217,3.555,2.948,4.628,5.192c1.072,2.244,1.609,4.892,1.609,7.942
		c0,3.051-0.537,5.698-1.609,7.942c-1.073,2.244-2.615,3.975-4.628,5.192c-2.014,1.218-4.372,1.826-7.075,1.826
		c-2.704,0-5.055-0.608-7.053-1.826c-1.998-1.217-3.541-2.948-4.628-5.192c-1.088-2.244-1.631-4.891-1.631-7.942
		c0-3.05,0.543-5.698,1.631-7.942c1.087-2.244,2.63-3.975,4.628-5.192s4.349-1.826,7.053-1.826
		C516.005,27.52,518.363,28.129,520.377,29.347z M506.91,30.314c-1.822,1.129-3.218,2.736-4.188,4.818
		c-0.97,2.083-1.454,4.532-1.454,7.348s0.484,5.266,1.454,7.348c0.97,2.083,2.365,3.689,4.188,4.818
		c1.822,1.129,3.952,1.694,6.392,1.694s4.569-0.564,6.392-1.694c1.822-1.129,3.218-2.735,4.188-4.818
		c0.97-2.083,1.455-4.532,1.455-7.348s-0.485-5.265-1.455-7.348c-0.97-2.082-2.365-3.688-4.188-4.818
		c-1.822-1.129-3.952-1.694-6.392-1.694S508.732,29.185,506.91,30.314z"/>
	<path d="M548.564,30.16c1.764,1.467,2.645,3.491,2.645,6.072c0,2.582-0.881,4.598-2.645,6.05c-1.763,1.452-4.188,2.178-7.273,2.178
		h-7.978V57h-1.234V27.96h9.212C544.377,27.96,546.802,28.694,548.564,30.16z M547.639,41.491c1.527-1.247,2.292-2.999,2.292-5.258
		c0-2.258-0.765-4.019-2.292-5.28c-1.528-1.261-3.674-1.892-6.436-1.892h-7.89v14.3h7.89
		C543.965,43.36,546.11,42.738,547.639,41.491z"/>
	<path d="M575.85,55.9V57h-20.188V27.96h19.482v1.1h-18.248v12.584h14.546v1.1h-14.546V55.9H575.85z"/>
	<path d="M600.137,57l-8.64-12.98h-0.617h-9.389V57h-1.234V27.96h10.623c2.88,0,5.149,0.711,6.81,2.134s2.491,3.381,2.491,5.874
		c0,2.2-0.64,3.99-1.918,5.368c-1.278,1.379-3.063,2.229-5.355,2.552L601.547,57H600.137z M596.83,41.072
		c1.411-1.202,2.116-2.904,2.116-5.104c0-2.17-0.705-3.864-2.116-5.082c-1.41-1.217-3.394-1.826-5.95-1.826h-9.389v13.816h9.389
		C593.437,42.876,595.42,42.275,596.83,41.072z"/>
</g>
<g>
	<path d="M40.851,125.888c0,3.888-1.067,6.876-3.2,8.967c-2.134,2.091-5.124,3.136-8.971,3.136c-3.847,0-6.837-1.045-8.97-3.136
		c-2.134-2.09-3.201-5.079-3.201-8.967V105.16h1.358v20.531c0,3.561,0.937,6.296,2.812,8.208c1.875,1.911,4.541,2.867,8,2.867
		c3.426,0,6.085-0.963,7.977-2.891c1.891-1.927,2.836-4.655,2.836-8.183V105.16h1.358V125.888z"/>
	<path d="M69.992,112.069l-1.115,0.882c-0.711-2.417-1.956-4.197-3.734-5.341c-1.778-1.143-4.089-1.715-6.934-1.715
		c-2.037,0-3.823,0.335-5.358,1.004c-1.536,0.67-2.715,1.577-3.54,2.72c-0.824,1.144-1.236,2.434-1.236,3.871
		c0,1.34,0.339,2.467,1.018,3.381c0.679,0.915,1.826,1.699,3.443,2.352c1.616,0.654,3.847,1.225,6.691,1.715
		c2.78,0.49,4.986,1.103,6.619,1.837c1.632,0.735,2.82,1.642,3.564,2.72s1.115,2.418,1.115,4.018c0,1.634-0.493,3.095-1.479,4.385
		c-0.987,1.291-2.369,2.295-4.146,3.014c-1.778,0.718-3.815,1.078-6.11,1.078c-3.427,0-6.296-0.711-8.606-2.132
		c-2.312-1.421-3.791-3.486-4.437-6.198l1.212-0.833c0.485,2.581,1.794,4.549,3.928,5.904c2.133,1.356,4.784,2.034,7.952,2.034
		c3.006,0,5.479-0.645,7.418-1.936c1.94-1.29,2.91-3.062,2.91-5.316c0-1.927-0.776-3.455-2.328-4.582s-4.203-2-7.952-2.622
		c-3.071-0.522-5.488-1.159-7.249-1.911c-1.762-0.751-3.023-1.673-3.782-2.769c-0.76-1.094-1.14-2.458-1.14-4.091
		c0-1.6,0.461-3.07,1.382-4.41c0.921-1.339,2.255-2.417,4-3.234c1.746-0.816,3.782-1.225,6.11-1.225
		C64.48,104.67,68.408,107.137,69.992,112.069z"/>
	<path d="M98.31,136.275v1.225H76.102v-32.34h21.432v1.225H77.459v14.014h16.001v1.225H77.459v14.651H98.31z"/>
	<path d="M125.027,137.5l-9.504-14.455h-0.679h-10.329V137.5h-1.357v-32.34h11.686c3.167,0,5.665,0.792,7.491,2.376
		c1.826,1.585,2.74,3.765,2.74,6.542c0,2.45-0.703,4.443-2.109,5.978c-1.406,1.536-3.37,2.483-5.891,2.842l9.504,14.602H125.027z
		 M121.39,119.763c1.552-1.339,2.327-3.234,2.327-5.684c0-2.417-0.775-4.304-2.327-5.66c-1.552-1.355-3.734-2.034-6.546-2.034
		h-10.329v15.386h10.329C117.656,121.771,119.838,121.102,121.39,119.763z"/>
	<path d="M145.391,137.5h-1.357v-32.34h1.357V137.5z"/>
	<path d="M177.685,137.5h-1.794l-19.541-28.126l-1.648-2.793h-0.048l0.097,3.283V137.5h-1.309v-32.34h1.746l19.589,28.126
		l1.649,2.744l-0.049-3.234V105.16h1.31V137.5z"/>
	<path d="M207.068,106.385h-12.025V137.5h-1.357v-31.115h-12.074v-1.225h25.457V106.385z"/>
	<path d="M233.204,136.275v1.225h-22.208v-32.34h21.432v1.225h-20.075v14.014h16.001v1.225h-16.001v14.651H233.204z"/>
	<path d="M259.921,137.5l-9.504-14.455h-0.679H239.41V137.5h-1.357v-32.34h11.686c3.167,0,5.665,0.792,7.491,2.376
		c1.826,1.585,2.74,3.765,2.74,6.542c0,2.45-0.703,4.443-2.109,5.978c-1.406,1.536-3.37,2.483-5.891,2.842l9.504,14.602H259.921z
		 M256.284,119.763c1.552-1.339,2.327-3.234,2.327-5.684c0-2.417-0.775-4.304-2.327-5.66c-1.552-1.355-3.734-2.034-6.546-2.034
		H239.41v15.386h10.329C252.55,121.771,254.732,121.102,256.284,119.763z"/>
	<path d="M267.824,106.385v14.014h16.001v1.225h-16.001V137.5h-1.357v-32.34h21.384v1.225H267.824z"/>
	<path d="M306.663,126.524h-15.904l-4.461,10.976h-1.406l13.043-32.34h1.552l13.043,32.34h-1.406L306.663,126.524z M306.129,125.25
		l-6.449-16.023l-0.97-2.646l-0.97,2.597l-6.498,16.072H306.129z"/>
	<path d="M336.241,135.736c-2.23,1.503-4.93,2.254-8.098,2.254c-2.845,0-5.351-0.678-7.516-2.034
		c-2.166-1.355-3.848-3.291-5.043-5.807c-1.196-2.515-1.794-5.455-1.794-8.82c0-3.364,0.589-6.304,1.77-8.82
		c1.18-2.515,2.853-4.45,5.019-5.806c2.166-1.355,4.671-2.034,7.516-2.034c6.627,0,10.765,2.777,12.414,8.33l-1.31,0.637
		c-1.552-5.161-5.237-7.742-11.056-7.742c-2.587,0-4.849,0.629-6.788,1.887c-1.939,1.258-3.451,3.046-4.534,5.365
		c-1.083,2.32-1.624,5.047-1.624,8.183c0,3.136,0.541,5.864,1.624,8.183c1.083,2.32,2.595,4.108,4.534,5.365
		c1.939,1.258,4.201,1.887,6.788,1.887c2.877,0,5.31-0.686,7.298-2.058s3.337-3.315,4.049-5.831l1.357,0.49
		C340.007,132.11,338.472,134.234,336.241,135.736z"/>
	<path d="M368.195,136.275v1.225h-22.208v-32.34h21.432v1.225h-20.074v14.014h16.002v1.225h-16.002v14.651H368.195z"/>
	<path d="M407.204,109.179c2.698,2.679,4.049,6.599,4.049,11.76c0,5.423-1.351,9.539-4.049,12.348
		c-2.7,2.81-6.619,4.214-11.759,4.214h-9.94v-32.34h9.94C400.585,105.16,404.504,106.5,407.204,109.179z M406.186,132.355
		c2.44-2.613,3.661-6.419,3.661-11.417c0-4.736-1.221-8.346-3.661-10.829c-2.441-2.482-6.005-3.724-10.692-3.724h-8.631v29.89h8.631
		C400.181,136.275,403.744,134.969,406.186,132.355z"/>
	<path d="M439.521,136.275v1.225h-22.208v-32.34h21.432v1.225h-20.074v14.014h16.002v1.225h-16.002v14.651H439.521z"/>
	<path d="M465.802,112.069l-1.115,0.882c-0.711-2.417-1.956-4.197-3.733-5.341c-1.778-1.143-4.09-1.715-6.934-1.715
		c-2.037,0-3.823,0.335-5.358,1.004c-1.535,0.67-2.715,1.577-3.539,2.72c-0.825,1.144-1.237,2.434-1.237,3.871
		c0,1.34,0.34,2.467,1.019,3.381c0.679,0.915,1.826,1.699,3.442,2.352c1.616,0.654,3.847,1.225,6.692,1.715
		c2.779,0.49,4.985,1.103,6.618,1.837c1.632,0.735,2.82,1.642,3.564,2.72c0.743,1.078,1.115,2.418,1.115,4.018
		c0,1.634-0.493,3.095-1.479,4.385c-0.986,1.291-2.368,2.295-4.146,3.014c-1.778,0.718-3.814,1.078-6.109,1.078
		c-3.427,0-6.296-0.711-8.607-2.132s-3.79-3.486-4.437-6.198l1.212-0.833c0.485,2.581,1.795,4.549,3.928,5.904
		c2.134,1.356,4.784,2.034,7.952,2.034c3.007,0,5.479-0.645,7.419-1.936c1.939-1.29,2.909-3.062,2.909-5.316
		c0-1.927-0.775-3.455-2.327-4.582s-4.202-2-7.952-2.622c-3.071-0.522-5.487-1.159-7.249-1.911
		c-1.763-0.751-3.023-1.673-3.782-2.769c-0.76-1.094-1.14-2.458-1.14-4.091c0-1.6,0.461-3.07,1.382-4.41
		c0.922-1.339,2.255-2.417,4.001-3.234c1.745-0.816,3.782-1.225,6.109-1.225C460.29,104.67,464.218,107.137,465.802,112.069z"/>
	<path d="M473.269,137.5h-1.357v-32.34h1.357V137.5z"/>
	<path d="M506.338,122.065V137.5h-1.213v-6.86c-0.775,2.32-2.157,4.125-4.146,5.415c-1.988,1.291-4.518,1.936-7.589,1.936
		c-2.845,0-5.333-0.678-7.467-2.034c-2.134-1.355-3.782-3.291-4.946-5.807c-1.163-2.515-1.745-5.455-1.745-8.82
		c0-3.364,0.598-6.304,1.794-8.82c1.195-2.515,2.877-4.45,5.043-5.806c2.165-1.355,4.671-2.034,7.516-2.034
		c3.329,0,6.021,0.686,8.073,2.058s3.531,3.463,4.438,6.272l-1.213,0.637c-1.616-5.161-5.382-7.742-11.298-7.742
		c-2.587,0-4.849,0.629-6.788,1.887c-1.939,1.258-3.451,3.046-4.534,5.365c-1.083,2.32-1.624,5.047-1.624,8.183
		c0,3.136,0.517,5.864,1.552,8.183c1.034,2.32,2.521,4.108,4.461,5.365c1.939,1.258,4.201,1.887,6.788,1.887
		c2.747,0,4.986-0.58,6.716-1.74c1.729-1.159,2.974-2.588,3.733-4.288c0.76-1.698,1.14-3.397,1.14-5.096v-2.352h-11.395v-1.225
		H506.338z"/>
	<path d="M537.08,137.5h-1.794l-19.541-28.126l-1.648-2.793h-0.049l0.098,3.283V137.5h-1.31v-32.34h1.745l19.59,28.126l1.648,2.744
		l-0.048-3.234V105.16h1.309V137.5z"/>
	<path d="M567.386,136.275v1.225h-22.208v-32.34h21.432v1.225h-20.074v14.014h16.002v1.225h-16.002v14.651H567.386z"/>
	<path d="M594.102,137.5l-9.504-14.455h-0.679h-10.328V137.5h-1.357v-32.34h11.686c3.168,0,5.665,0.792,7.492,2.376
		c1.825,1.585,2.739,3.765,2.739,6.542c0,2.45-0.703,4.443-2.109,5.978c-1.406,1.536-3.37,2.483-5.892,2.842l9.504,14.602H594.102z
		 M590.465,119.763c1.552-1.339,2.328-3.234,2.328-5.684c0-2.417-0.776-4.304-2.328-5.66c-1.551-1.355-3.733-2.034-6.546-2.034
		h-10.328v15.386h10.328C586.731,121.771,588.914,121.102,590.465,119.763z"/>
</g>
<line class="st5" x1="15.928" y1="77.333" x2="267.425" y2="77.333"/>
<line class="st5" x1="15.928" y1="83.333" x2="267.425" y2="83.333"/>
<line class="st5" x1="349.928" y1="77.333" x2="601.425" y2="77.333"/>
<line class="st5" x1="349.928" y1="83.333" x2="601.425" y2="83.333"/>
</svg>
