<svg version="1.1" id="Layer_1" xmlns="http://www.w3.org/2000/svg" xmlns:xlink="http://www.w3.org/1999/xlink" x="0px" y="0px"
	 viewBox="0 0 255.864 180.24" style="enable-background:new 0 0 255.864 180.24;" xml:space="preserve">
<style type="text/css">
	.st0{fill:none;stroke:#000000;stroke-width:1.5;}
</style>

<defs>
	<style>
		#h{
			stroke-dasharray: 2200;
			stroke-dashoffset: 0;
			-webkit-animation: dash 4s linear forwards;
		}

		@-webkit-keyframes dash{
			from{
				stroke-dashoffset: 2200;
			}

			to{
				stroke-dashoffset: 0;
			}
		}
	</style>
</defs>
<g>
	<g>
		<path id="h" class="st0" d="M143.989,102.531c-2.228,7.828-4.01,15.131-5.346,21.91s-2.005,12.649-2.005,17.614
			c0,4.328,0.907,7.717,2.721,10.167c1.814,2.451,4.821,3.675,9.022,3.675c1.59,0,3.5-0.461,5.728-1.384
			c2.227-0.922,4.773-2.37,7.637-4.344c2.864-1.972,6.062-4.518,9.594-7.637c3.532-3.118,7.462-6.841,11.79-11.17
			c0.191,0.382,0.573,1.274,1.146,2.673c0.508,1.21,1.224,3.04,2.148,5.489c0.922,2.451,2.211,5.808,3.866,10.072
			c-4.773,5.028-9.564,9.451-14.368,13.27c-4.806,3.819-9.484,7.017-14.034,9.594c-4.551,2.578-8.911,4.518-13.079,5.823
			c-4.169,1.304-8.004,1.957-11.504,1.957c-4.01,0-7.733-0.748-11.17-2.243c-3.437-1.496-6.412-3.675-8.926-6.539
			c-2.515-2.864-4.503-6.38-5.967-10.549c-1.464-4.168-2.196-8.926-2.196-14.272c0-1.845,0.191-4.168,0.573-6.969
			c0.382-2.8,0.938-5.982,1.671-9.547c0.731-3.564,1.623-7.462,2.673-11.695c1.05-4.232,2.211-8.703,3.485-13.413
			c-8.529,0.892-16.707,1.718-24.535,2.482s-15.625,1.496-23.389,2.196c-1.782,5.346-3.548,10.581-5.298,15.704
			c-1.751,5.124-3.437,9.928-5.06,14.415c-1.623,4.487-3.119,8.592-4.487,12.315c-1.369,3.723-2.53,6.89-3.485,9.499
			c-3.119,6.747-6.158,11.52-9.117,14.32c-2.959,2.8-5.617,4.201-7.971,4.201c-1.527,0-3.023-0.255-4.487-0.764
			c-1.464-0.51-2.769-1.241-3.914-2.196c-1.146-0.955-2.053-2.1-2.721-3.437c-0.668-1.337-1.002-2.832-1.002-4.487
			c0-1.018,0.127-2.005,0.382-2.959c2.673-9.738,5.585-19.141,8.735-28.21s6.349-17.9,9.594-26.492
			c-3.501,0-6.858-0.27-10.072-0.811c-3.214-0.54-6.19-1.48-8.926-2.816c-2.737-1.337-5.171-3.182-7.303-5.537
			c-2.133-2.354-3.899-5.346-5.298-8.974c-0.255-1.146-0.462-2.163-0.621-3.055c-0.159-0.891-0.239-1.781-0.239-2.673
			c0-2.8,0.986-4.201,2.959-4.201c1.209,0,2.545,0.653,4.01,1.957c1.463,1.305,3.341,3.389,5.633,6.253
			c2.991-0.127,5.982-0.222,8.974-0.286c2.991-0.063,6.205-0.095,9.642-0.095h9.165c2.291-5.919,4.471-11.631,6.539-17.136
			c2.068-5.505,3.993-10.898,5.776-16.182c1.082-3.373,1.941-6.746,2.578-10.119c0.636-3.373,0.955-6.587,0.955-9.642
			c0-2.482-0.223-4.773-0.668-6.874c-0.446-2.1-1.178-3.882-2.196-5.346c-1.019-1.463-2.324-2.609-3.914-3.437
			c-1.591-0.827-3.565-1.241-5.919-1.241c-1.909,0-4.121,0.319-6.635,0.955c-2.515,0.637-5.298,1.671-8.353,3.103
			s-6.381,3.31-9.976,5.633c-3.596,2.324-7.494,5.203-11.695,8.64c-1.464,1.21-2.816,2.069-4.057,2.578
			c-1.241,0.51-2.371,0.764-3.389,0.764c-0.51,0-0.892-0.843-1.146-2.53c-0.255-1.686-0.382-3.771-0.382-6.253
			c0-3.309,0.779-6.459,2.339-9.451c1.559-2.991,3.643-5.743,6.253-8.258c2.609-2.514,5.616-4.805,9.022-6.874
			c3.404-2.068,6.905-3.819,10.501-5.251c3.595-1.432,7.175-2.53,10.74-3.294C48.554,0.382,51.832,0,54.824,0
			c4.454,0,8.719,0.605,12.792,1.814c4.073,1.21,7.653,3.15,10.74,5.823c3.086,2.673,5.537,6.142,7.351,10.406
			c1.814,4.264,2.721,9.451,2.721,15.561c0,2.864-0.334,6.365-1.002,10.501c-0.668,4.138-1.575,8.672-2.721,13.604
			c-1.146,4.933-2.498,10.183-4.057,15.752c-1.56,5.57-3.231,11.25-5.012,17.041c6.555-0.445,13.938-0.891,22.148-1.337
			c8.21-0.445,16.452-0.891,24.726-1.337c3.246-10.628,6.826-21.623,10.74-32.984s8.067-22.514,12.458-33.461
			c1.464-3.628,3.389-6.523,5.776-8.687c2.387-2.163,5.203-3.246,8.449-3.246c1.337,0,2.625,0.191,3.866,0.573
			s2.339,0.971,3.294,1.766c0.955,0.796,1.701,1.814,2.243,3.055c0.54,1.241,0.811,2.689,0.811,4.344
			c0,1.464-0.095,3.167-0.286,5.107c-0.191,1.942-0.701,4.026-1.527,6.253c-1.464,3.947-3.023,8.162-4.678,12.649
			c-1.655,4.487-3.326,9.102-5.012,13.843c-1.687,4.742-3.374,9.594-5.06,14.559c-1.687,4.964-3.294,9.897-4.821,14.797
			c4.01-0.254,7.509-0.493,10.501-0.716c2.991-0.222,5.251-0.397,6.778-0.525c0.7-0.063,1.352-0.111,1.957-0.143
			c0.603-0.032,1.161-0.048,1.671-0.048c1.909,0,3.452,0.191,4.63,0.573c1.176,0.382,2.1,0.923,2.769,1.623
			c0.668,0.701,1.128,1.527,1.384,2.482c0.254,0.955,0.382,2.037,0.382,3.246c0,1.337-0.286,2.451-0.859,3.341
			c-0.573,0.892-1.289,1.608-2.148,2.148c-0.859,0.541-1.766,0.923-2.721,1.146c-0.955,0.223-1.846,0.367-2.673,0.43
			c-1.783,0.191-3.055,0.334-3.819,0.43c-0.764,0.095-1.305,0.159-1.623,0.191c-0.319,0.032-0.525,0.064-0.621,0.095
			c-0.095,0.032-0.334,0.064-0.716,0.095c-0.382,0.032-1.05,0.08-2.005,0.143c-0.955,0.064-2.419,0.191-4.391,0.382
			c-2.291,0.255-4.535,0.477-6.73,0.668S146.152,102.34,143.989,102.531z"/>
		<path class="st0" d="M255.864,153.796c-2.291,2.1-5.14,4.344-8.544,6.73c-3.406,2.387-7.082,4.582-11.026,6.587
			c-3.947,2.005-7.971,3.675-12.076,5.012c-4.105,1.337-8.004,2.005-11.695,2.005c-3.311,0-6.095-0.461-8.353-1.384
			c-2.261-0.922-4.09-2.211-5.489-3.866c-1.401-1.654-2.404-3.675-3.007-6.062c-0.605-2.387-0.907-5.012-0.907-7.876
			c0-4.01,0.46-8.671,1.384-13.986c0.922-5.314,2.053-10.819,3.389-16.516c1.337-5.696,2.751-11.376,4.248-17.041
			c1.495-5.664,2.816-10.883,3.962-15.656c0.445-1.654,1.337-3.07,2.673-4.248c1.337-1.177,2.847-2.132,4.535-2.864
			c1.686-0.731,3.437-1.273,5.251-1.623c1.814-0.349,3.452-0.525,4.917-0.525c2.673,0,4.487,0.494,5.442,1.48
			c0.955,0.987,1.432,2.307,1.432,3.962c0,1.4-0.319,3.422-0.955,6.062c-0.638,2.642-1.432,5.633-2.387,8.974
			c-0.955,3.341-1.974,6.938-3.055,10.788c-1.083,3.851-2.1,7.701-3.055,11.551c-0.955,3.851-1.751,7.606-2.387,11.265
			c-0.638,3.66-0.955,6.954-0.955,9.881c0,2.864,0.317,5.14,0.955,6.826c0.636,1.687,1.94,2.53,3.914,2.53
			c2.291,0,4.836-0.795,7.637-2.387c2.799-1.59,5.633-3.516,8.497-5.776c2.864-2.259,5.663-4.598,8.401-7.017
			c2.736-2.418,5.155-4.487,7.255-6.205V153.796z M213.191,55.657c0-1.464,0.317-3.118,0.955-4.964
			c0.636-1.845,1.671-3.58,3.103-5.203s3.341-2.991,5.728-4.105c2.387-1.113,5.361-1.671,8.926-1.671
			c2.226,0,4.327,0.255,6.301,0.764c1.972,0.51,3.691,1.289,5.155,2.339c1.463,1.05,2.625,2.434,3.485,4.153
			c0.859,1.718,1.289,3.756,1.289,6.11c0,2.164-0.351,4.264-1.05,6.301c-0.701,2.037-1.814,3.851-3.341,5.442
			c-1.527,1.591-3.454,2.88-5.776,3.866c-2.324,0.987-5.107,1.48-8.353,1.48c-5.602,0-9.738-1.32-12.411-3.962
			C214.527,63.565,213.191,60.048,213.191,55.657z"/>
	</g>
</g>
</svg>
