<?xml version="1.0" encoding="utf-8"?>
<!-- Generator: Adobe Illustrator 20.1.0, SVG Export Plug-In . SVG Version: 6.00 Build 0)  -->
<svg version="1.1" id="Layer_1" xmlns="http://www.w3.org/2000/svg" xmlns:xlink="http://www.w3.org/1999/xlink" x="0px" y="0px"
	 viewBox="0 0 1927.6 1131.1" style="enable-background:new 0 0 1927.6 1131.1;" xml:space="preserve">
<style type="text/css">
	.st0{fill:none;stroke:#FFFFFF;stroke-width:2;stroke-miterlimit:10;}
	.st1{fill:none;stroke:#FFFFFF;stroke-width:3;stroke-miterlimit:10;}
	.st2{fill:none;stroke:#FFFFFF;stroke-miterlimit:10;}
</style>
<g>
	<g>
		<path class="st0" d="M1909.3,1051.5h-175.7c2-5.9,3.2-12.2,3.2-18.7V74.7c0-31.8-25.9-57.7-57.7-57.7H244.8
			c-31.8,0-57.7,25.9-57.7,57.7v958.1c0,6.6,1.1,12.9,3.2,18.7h-176c-1.7,0-3,1.3-3,3v29.5c0,0.9,0,3.4,2.2,5
			c0.5,0.4,1.1,0.8,1.7,1.2c0,0,0,0,0,0c13.1,9,45.9,22.4,82.8,22.4h1727.7c36.8,0,69.7-13.4,82.8-22.4c0,0,0,0,0,0
			c0.8-0.5,1.5-1,2.1-1.6c1.7-1.3,1.7-3.4,1.7-4.2v-29.8C1912.3,1052.9,1910.9,1051.5,1909.3,1051.5z M191.2,1032.7V74.7
			c0-29.6,24.1-53.7,53.7-53.7h1434.2c29.6,0,53.7,24.1,53.7,53.7v958.1c0,6.6-1.2,12.9-3.4,18.7h-157l-0.2-0.9l-4.7-20.9h140
			c11,0,20-9,20-20v-93.2v-5V74c0-26.3-21.4-47.7-47.7-47.7H244.1c-26.3,0-47.7,21.4-47.7,47.7v837.5v5v93.2c0,11,9,20,20,20h135.4
			l-4.7,20.9l-0.2,0.9H194.6C192.4,1045.6,191.2,1039.3,191.2,1032.7z M827.4,1051.5H630.6h-62.4H351.1l4.9-21.6h212.2h62.4h932.8
			l4.9,21.6h-471.9H827.4z M1092.1,1055.5c-1.2,6.4-7.5,17.4-18.7,17.4H850.3c-11.2,0-17.5-11-18.7-17.4H1092.1z M15.3,1055.5h330.7
			h5h217.1h62.4h196.9c1.2,8.3,9.1,21.4,22.8,21.4h223.1c13.7,0,21.6-13.1,22.8-21.4h472.1h5h335.1v28.8c0,0.4,0,0.9-0.2,1
			c-0.5,0.4-0.9,0.7-1.4,1.1H17c-0.4-0.3-0.7-0.5-1.1-0.8c-0.4-0.3-0.6-0.6-0.6-1.7V1055.5z"/>
		<path class="st1" d="M1683.9,78.6H239.7c-2.8,0-5,2.2-5,5v903.1c0,2.8,2.2,5,5,5h1444.2c2.8,0,5-2.2,5-5V83.6
			C1688.9,80.8,1686.7,78.6,1683.9,78.6z"/>
		<path class="st0" d="M962.2,65.1c4.4,0,8-3.6,8-8c0-4.4-3.6-8-8-8c-4.4,0-8,3.6-8,8C954.2,61.5,957.8,65.1,962.2,65.1z"/>
		<path class="st2" d="M666.2,1106.1L666.2,1106.1c0.4,0,0.8,0,1.2,0c5.5-0.1,8.8-1.2,9.6-3c0.4-0.9,0.2-2-0.5-2.8
			c-2.3-2.6-10.4-2.7-12-2.7c-0.4,0-0.8,0-1.2,0c-5.5,0.1-8.8,1.2-9.6,3c-0.4,0.9-0.2,2,0.5,2.8
			C656.4,1106,664.6,1106.1,666.2,1106.1z"/>
		<path class="st2" d="M1254,1106.1c0.4,0,0.8,0,1.2,0c1.6,0,9.8-0.1,12-2.7c0.7-0.8,0.9-1.9,0.5-2.8c-0.8-1.9-4-2.9-9.6-3
			c-0.4,0-0.8,0-1.2,0c-1.6,0-9.8,0.1-12,2.7c-0.7,0.8-0.9,1.9-0.5,2.8C1245.2,1104.9,1248.4,1105.9,1254,1106.1z"/>
	</g>
</g>
</svg>
