<!--?xml version="1.0" encoding="utf-8"?-->
<!-- Generator: Adobe Illustrator 20.1.0, SVG Export Plug-In . SVG Version: 6.00 Build 0)  -->
<svg version="1.1" id="Layer_1" xmlns="http://www.w3.org/2000/svg" xmlns:xlink="http://www.w3.org/1999/xlink" x="0px" y="0px" viewBox="0 0 627 122.5" xml:space="preserve">
<style type="text/css">
	.st0{fill:none;stroke:#30373B;stroke-width:3;stroke-miterlimit:10;}
</style>
<g>
	<path class="st0 dmqmpNXS_0" d="M39.1,10.3l-6,31.6h29.4l6-31.6h17.3L70.4,91.2H53.1l6.4-34H30.2l-6.5,34H6.4l15.4-80.9H39.1z"></path>
	<path class="st0 dmqmpNXS_1" d="M134.7,87.9c-6.8,3.5-15.4,4.6-21.8,4.6c-16.8,0-25.4-9.5-25.4-24.7c0-17.9,13-36.5,34.2-36.5
		c11.9,0,20.4,6.6,20.4,17.5c0,15-14.5,20.4-38,19.8c0,1.7,0.6,4.3,1.8,6c2.3,3,6.2,4.6,11.3,4.6c6.4,0,11.8-1.4,16.4-3.7
		L134.7,87.9z M119.5,43.8c-8,0-12.6,6.6-13.8,12.1c13.4,0.1,20.2-1.8,20.2-7.1C125.8,45.9,123.4,43.8,119.5,43.8z"></path>
	<path class="st0 dmqmpNXS_2" d="M166.9,32.5l3.6,25.6c0.8,6,1.4,10.2,1.9,13.9h0.2c1.3-3.5,2.6-7.3,5.2-13.7l10.7-25.8h18.2l-21,42.1
		c-7.8,15.6-14.8,26.3-22.6,33.6c-6.8,6.5-15,9.4-18.8,10l-3.8-14.8c2.8-0.8,6.6-2.3,10-4.7c4-2.8,7.3-6.2,9.5-10.2
		c0.6-0.8,0.6-1.6,0.4-2.9l-11.6-53.2H166.9z"></path>
	<path class="st0 dmqmpNXS_3" d="M230.5,72.5c4.8,2.9,11.6,5.2,19.1,5.2c6.7,0,12.8-3.1,12.8-9.5c0-4.6-3.5-7.6-10.9-11.4
		c-8.6-4.7-16.8-10.9-16.8-21.5C234.7,19,249,9,266.6,9c9.8,0,15.6,2.2,19.1,4.1l-5.4,14.4c-2.6-1.4-8.4-3.7-15.1-3.6
		c-8,0-12.2,4.1-12.2,8.5c0,4.7,4.9,7.6,11.8,11.4c9.8,5.2,16.1,11.8,16.1,21.4c0,18-14.9,27.2-32.9,27.2c-11.3,0-19.3-2.9-23.2-5.8
		L230.5,72.5z"></path>
	<path class="st0 dmqmpNXS_4" d="M287.5,91.2L303.6,6h17.3l-6.5,34l0.2,0.1c4.8-5.4,10.9-8.9,18.7-8.9c9.1,0,14.8,5.8,14.8,15.8
		c0,2.8-0.5,7.2-1.1,10.6l-6.4,33.6h-17.3l6-32.2c0.5-2.3,0.8-4.8,0.8-7.3c0-3.8-1.7-6.6-6-6.6c-6,0-12.1,7.3-14.4,19.2l-5,26.9
		H287.5z"></path>
	<path class="st0 dmqmpNXS_5" d="M417,55.3c0,21.5-14.6,37.2-35,37.2c-14.9,0-24.8-9.7-24.8-24.2c0-20.4,14.2-37.1,35-37.1
		C407.8,31.2,417,42,417,55.3z M375,67.9c0,6.8,3.4,11.4,9.4,11.4c9.5,0,14.8-13.8,14.8-23.9c0-5.4-2.3-11.2-9.2-11.2
		C379.9,44.3,374.8,58.8,375,67.9z"></path>
	<path class="st0 dmqmpNXS_6" d="M417.4,115l11.3-59.8c1.3-7,2.8-16.7,3.5-22.7h15.5l-1.1,8.5h0.2c4.8-6.4,11.8-9.8,18.8-9.8
		c12.7,0,18.8,10.2,18.8,22.2c0,20.4-13.6,39.1-34,39.1c-4.8,0-8.9-1.2-10.9-2.4h-0.2l-4.8,24.8H417.4z M442,76.6
		c1.9,1.8,4.6,2.9,7.9,2.9c9.2,0,16.4-13.2,16.4-24.7c0-4.7-1.9-9.6-7.6-9.6c-6.5,0-12.5,7.3-14.6,18.8L442,76.6z"></path>
	<path class="st0 dmqmpNXS_7" d="M489.6,91.2l11.2-58.7H518l-11.2,58.7H489.6z M503.1,16.8c0.1-5.9,4.7-9.8,10-9.8c5,0,8.6,3.4,8.6,8.5
		c0,6.1-4.7,9.7-10.2,9.7C506.7,25.2,503.1,22,503.1,16.8z"></path>
	<path class="st0 dmqmpNXS_8" d="M523.4,91.2l8.5-45.6h-7.6l2.5-13.1h7.6l0.6-3.1c1.2-6.8,4-14.2,9.8-19.1c4.7-4.1,10.9-5.6,16.7-5.6
		c4.2,0,7.3,0.6,9.2,1.4l-3,13.8c-1.6-0.7-3.4-1.1-5.6-1.1c-5.5,0-9,4.9-10.1,10.8l-0.6,2.9h11.6l-2.5,13.1h-11.5l-8.5,45.6H523.4z"></path>
	<path class="st0 dmqmpNXS_9" d="M583.4,32.5l3.6,25.6c0.8,6,1.4,10.2,1.9,13.9h0.2c1.3-3.5,2.6-7.3,5.2-13.7L605,32.5h18.2l-21,42.1
		c-7.8,15.6-14.8,26.3-22.6,33.6c-6.8,6.5-15,9.4-18.8,10l-3.8-14.8c2.8-0.8,6.6-2.3,10-4.7c4-2.8,7.3-6.2,9.5-10.2
		c0.6-0.8,0.6-1.6,0.4-2.9l-11.6-53.2H583.4z"></path>
</g>
<style>.dmqmpNXS_0{stroke-dasharray:427 429;stroke-dashoffset:428;animation:dmqmpNXS_draw 3000ms ease-in-out 0ms forwards;}.dmqmpNXS_1{stroke-dasharray:298 300;stroke-dashoffset:299;animation:dmqmpNXS_draw 3000ms ease-in-out 0ms forwards;}.dmqmpNXS_2{stroke-dasharray:327 329;stroke-dashoffset:328;animation:dmqmpNXS_draw 3000ms ease-in-out 0ms forwards;}.dmqmpNXS_3{stroke-dasharray:330 332;stroke-dashoffset:331;animation:dmqmpNXS_draw 3000ms ease-in-out 0ms forwards;}.dmqmpNXS_4{stroke-dasharray:368 370;stroke-dashoffset:369;animation:dmqmpNXS_draw 3000ms ease-in-out 0ms forwards;}.dmqmpNXS_5{stroke-dasharray:287 289;stroke-dashoffset:288;animation:dmqmpNXS_draw 3000ms ease-in-out 0ms forwards;}.dmqmpNXS_6{stroke-dasharray:368 370;stroke-dashoffset:369;animation:dmqmpNXS_draw 3000ms ease-in-out 0ms forwards;}.dmqmpNXS_7{stroke-dasharray:213 215;stroke-dashoffset:214;animation:dmqmpNXS_draw 3000ms ease-in-out 0ms forwards;}.dmqmpNXS_8{stroke-dasharray:267 269;stroke-dashoffset:268;animation:dmqmpNXS_draw 3000ms ease-in-out 0ms forwards;}.dmqmpNXS_9{stroke-dasharray:327 329;stroke-dashoffset:328;animation:dmqmpNXS_draw 3000ms ease-in-out 0ms forwards;}@keyframes dmqmpNXS_draw{100%{stroke-dashoffset:0;}}@keyframes dmqmpNXS_fade{0%{stroke-opacity:1;}94.44444444444444%{stroke-opacity:1;}100%{stroke-opacity:0;}}</style></svg>
