<?xml version="1.0" encoding="utf-8"?>
<!-- Generator: Adobe Illustrator 16.0.0, SVG Export Plug-In . SVG Version: 6.00 Build 0)  -->
<!DOCTYPE svg PUBLIC "-//W3C//DTD SVG 1.1//EN" "http://www.w3.org/Graphics/SVG/1.1/DTD/svg11.dtd">
<svg version="1.1" id="Layer_1" xmlns="http://www.w3.org/2000/svg" xmlns:xlink="http://www.w3.org/1999/xlink" x="0px" y="0px"
	 width="1766px" height="1392px" viewBox="-85 -138 1766 1392" enable-background="new -85 -138 1766 1392" xml:space="preserve">
<path fill="#E2E1EE" stroke="#FFFFFF" stroke-width="0.51" d="M76-147l235,14l259-2L76-147z"/>
<path fill="#D7DBEB" stroke="#FFFFFF" stroke-width="0.51" d="M76-147l494,12l119-2L76-147z"/>
<path opacity="0.8" fill="#C5D3E7" stroke="#FFFFFF" stroke-width="0.51" d="M76-147l613,10l493-17L76-147z"/>
<path opacity="0.8" fill="#A7C2DD" stroke="#FFFFFF" stroke-width="0.51" d="M689-137l289,24l204-41L689-137z"/>
<path opacity="0.8" fill="#2F698F" stroke="#FFFFFF" stroke-width="0.51" d="M816,1231l-209,23l595-4L816,1231z"/>
<path opacity="0.4" fill="#035180" stroke="#FFFFFF" stroke-width="0.51" d="M1247,1239l-45,11l207-16L1247,1239z"/>
<path opacity="0.4" fill="#ACC6E0" stroke="#FFFFFF" stroke-width="0.51" d="M76-147l1106-7l297-9L76-147z"/>
<path opacity="0.4" fill="#156291" stroke="#FFFFFF" stroke-width="0.51" d="M1578,809l4,82l73-197L1578,809z"/>
<path opacity="0.4" fill="#045586" stroke="#FFFFFF" stroke-width="0.51" d="M1582,891l-50,128l136-3L1582,891z"/>
<path opacity="0.4" fill="#6B83A4" stroke="#FFFFFF" stroke-width="0.51" d="M1633,157l-121,89l169,96L1633,157z"/>
<path opacity="0.4" fill="#6684A8" stroke="#FFFFFF" stroke-width="0.51" d="M1512,246l-11,74l180,22L1512,246z"/>
<path opacity="0.4" fill="#4D7699" stroke="#FFFFFF" stroke-width="0.51" d="M1587,473l59,92l35-223L1587,473z"/>
<path opacity="0.4" fill="#2E6E98" stroke="#FFFFFF" stroke-width="0.51" d="M1646,565l-178,127l187,2L1646,565z"/>
<path opacity="0.4" fill="#04517F" stroke="#FFFFFF" stroke-width="0.51" d="M1532,1019l92,39l44-42L1532,1019z"/>
<path opacity="0.4" fill="#46769D" stroke="#FFFFFF" stroke-width="0.51" d="M1587,473l-39,48l98,44L1587,473z"/>
<path opacity="0.4" fill="#1F6E9B" stroke="#FFFFFF" stroke-width="0.51" d="M1468,692l29,86l158-84L1468,692z"/>
<path opacity="0.4" fill="#5880A8" stroke="#FFFFFF" stroke-width="0.51" d="M1501,320l-3,147l89,6L1501,320z"/>
<path opacity="0.4" fill="#03507C" stroke="#FFFFFF" stroke-width="0.51" d="M1502,1038l96,132l26-112L1502,1038z"/>
<path opacity="0.4" fill="#0C6093" stroke="#FFFFFF" stroke-width="0.51" d="M1578,809l-65,67l69,15L1578,809z"/>
<path opacity="0.4" fill="#045C91" stroke="#FFFFFF" stroke-width="0.51" d="M1513,876l19,143l50-128L1513,876z"/>
<path opacity="0.4" fill="#034D79" stroke="#FFFFFF" stroke-width="0.51" d="M1502,1038l-8,189l104-57L1502,1038z"/>
<path opacity="0.4" fill="#4D7CA4" stroke="#FFFFFF" stroke-width="0.51" d="M1498,467l50,54l39-48L1498,467z"/>
<path opacity="0.4" fill="#6086AF" stroke="#FFFFFF" stroke-width="0.51" d="M1452,349l46,118l3-147L1452,349z"/>
<path opacity="0.4" fill="#136598" stroke="#FFFFFF" stroke-width="0.51" d="M1497,778l16,98l65-67L1497,778z"/>
<path opacity="0.4" fill="#387BAA" stroke="#FFFFFF" stroke-width="0.51" d="M1438,489l18,204l12-1L1438,489z"/>
<path opacity="0.4" fill="#94A9CB" stroke="#FFFFFF" stroke-width="0.51" d="M1182-154l161,46l136-55L1182-154z"/>
<path opacity="0.4" fill="#8499BA" stroke="#FFFFFF" stroke-width="0.51" d="M1495-6l-44,53l46,53L1495-6z"/>
<path opacity="0.4" fill="#417CA8" stroke="#FFFFFF" stroke-width="0.51" d="M1438,489l30,203l80-171L1438,489z"/>
<path opacity="0.4" fill="#04517F" stroke="#FFFFFF" stroke-width="0.51" d="M1418,1066l-9,168l85-7L1418,1066z"/>
<path opacity="0.4" fill="#8A9EBE" stroke="#FFFFFF" stroke-width="0.51" d="M1448-93l15,81l32,6L1448-93z"/>
<path opacity="0.4" fill="#7A93B8" stroke="#FFFFFF" stroke-width="0.51" d="M1497,100l-136,101l151,45L1497,100z"/>
<path opacity="0.4" fill="#045B90" stroke="#FFFFFF" stroke-width="0.51" d="M1431,943l71,95l30-19L1431,943z"/>
<path opacity="0.4" fill="#166DA4" stroke="#FFFFFF" stroke-width="0.51" d="M1382,796v78l115-96L1382,796z"/>
<path opacity="0.4" fill="#2173A4" stroke="#FFFFFF" stroke-width="0.51" d="M1468,692l-12,1l41,85L1468,692z"/>
<path opacity="0.4" fill="#5885AF" stroke="#FFFFFF" stroke-width="0.51" d="M1452,349l-14,140l60-22L1452,349z"/>
<path opacity="0.4" fill="#718FB7" stroke="#FFFFFF" stroke-width="0.51" d="M1361,201l91,148l60-103L1361,201z"/>
<path opacity="0.4" fill="#11699F" stroke="#FFFFFF" stroke-width="0.51" d="M1497,778l-115,96l131,2L1497,778z"/>
<path opacity="0.4" fill="#05659F" stroke="#FFFFFF" stroke-width="0.51" d="M1382,874l49,69l82-67L1382,874z"/>
<path opacity="0.4" fill="#4481B1" stroke="#FFFFFF" stroke-width="0.51" d="M1438,489l-137,33l155,171L1438,489z"/>
<path opacity="0.4" fill="#3B80B2" stroke="#FFFFFF" stroke-width="0.51" d="M1301,522l-21,120l176,51L1301,522z"/>
<path opacity="0.4" fill="#889BBD" stroke="#FFFFFF" stroke-width="0.51" d="M1463-12l-12,59l44-53L1463-12z"/>
<path opacity="0.4" fill="#045D93" stroke="#FFFFFF" stroke-width="0.51" d="M1431,943l-13,123l84-28L1431,943z"/>
<path opacity="0.4" fill="#5187B5" stroke="#FFFFFF" stroke-width="0.51" d="M1362,480l-61,42l137-33L1362,480z"/>
<path opacity="0.4" fill="#5F8BB8" stroke="#FFFFFF" stroke-width="0.51" d="M1326,392l36,88l90-131L1326,392z"/>
<path opacity="0.4" fill="#7293BD" stroke="#FFFFFF" stroke-width="0.51" d="M1361,201l-72,50l163,98L1361,201z"/>
<path opacity="0.4" fill="#046098" stroke="#FFFFFF" stroke-width="0.51" d="M1329,1013l89,53l13-123L1329,1013z"/>
<path opacity="0.4" fill="#849CC3" stroke="#FFFFFF" stroke-width="0.51" d="M1260,69l101,132l90-154L1260,69z"/>
<path opacity="0.4" fill="#8EA2C3" stroke="#FFFFFF" stroke-width="0.51" d="M1448-93l-105-15l120,96L1448-93z"/>
<path opacity="0.4" fill="#8BA0C2" stroke="#FFFFFF" stroke-width="0.51" d="M1300-48l151,95l12-59L1300-48z"/>
<path opacity="0.4" fill="#6A90BC" stroke="#FFFFFF" stroke-width="0.51" d="M1289,251l37,141l126-43L1289,251z"/>
<path opacity="0.4" fill="#2075AA" stroke="#FFFFFF" stroke-width="0.51" d="M1306,742l76,54l74-103L1306,742z"/>
<path opacity="0.4" fill="#2A7CAF" stroke="#FFFFFF" stroke-width="0.51" d="M1280,642l26,100l150-49L1280,642z"/>
<path opacity="0.4" fill="#045A8D" stroke="#FFFFFF" stroke-width="0.51" d="M1310,1039l99,195l9-168L1310,1039z"/>
<path opacity="0.4" fill="#8BA2C7" stroke="#FFFFFF" stroke-width="0.51" d="M1300-48l-40,117l191-22L1300-48z"/>
<path opacity="0.4" fill="#045788" stroke="#FFFFFF" stroke-width="0.51" d="M1310,1039l-63,200l162-5L1310,1039z"/>
<path opacity="0.4" fill="#04659F" stroke="#FFFFFF" stroke-width="0.51" d="M1382,874l-53,139l102-70L1382,874z"/>
<path opacity="0.65" fill="#6B93C0" stroke="#FFFFFF" stroke-width="0.51" d="M1289,251l-17,110l54,31L1289,251z"/>
<path opacity="0.65" fill="#1974AC" stroke="#FFFFFF" stroke-width="0.51" d="M1306,742l-43,129l119-75L1306,742z"/>
<path opacity="0.65" fill="#106EA9" stroke="#FFFFFF" stroke-width="0.51" d="M1382,796l-119,75l119,3V796z"/>
<path opacity="0.65" fill="#0569A6" stroke="#FFFFFF" stroke-width="0.51" d="M1263,871l66,142l53-139L1263,871z"/>
<path opacity="0.65" fill="#809BC5" stroke="#FFFFFF" stroke-width="0.51" d="M1260,69l29,182l72-50L1260,69z"/>
<path opacity="0.65" fill="#578AB9" stroke="#FFFFFF" stroke-width="0.51" d="M1326,392l-25,130l61-42L1326,392z"/>
<path opacity="0.65" fill="#84A0CB" stroke="#FFFFFF" stroke-width="0.51" d="M1260,69l-73,34l102,148L1260,69z"/>
<path opacity="0.65" fill="#598FC0" stroke="#FFFFFF" stroke-width="0.51" d="M1234,378l-40,112l107,32L1234,378z"/>
<path opacity="0.65" fill="#056198" stroke="#FFFFFF" stroke-width="0.51" d="M1138,1061l109,178l63-200L1138,1061z"/>
<path opacity="0.65" fill="#5D8EBD" stroke="#FFFFFF" stroke-width="0.51" d="M1234,378l67,144l25-130L1234,378z"/>
<path opacity="0.65" fill="#056CA9" stroke="#FFFFFF" stroke-width="0.51" d="M1263,871l-53,19l119,123L1263,871z"/>
<path opacity="0.65" fill="#94ABCF" stroke="#FFFFFF" stroke-width="0.51" d="M1182-154l118,106l43-60L1182-154z"/>
<path opacity="0.65" fill="#829FCB" stroke="#FFFFFF" stroke-width="0.51" d="M1187,103l-31,107l133,41L1187,103z"/>
<path opacity="0.65" fill="#1976B1" stroke="#FFFFFF" stroke-width="0.51" d="M1190,802l73,69l43-129L1190,802z"/>
<path opacity="0.65" fill="#6691C0" stroke="#FFFFFF" stroke-width="0.51" d="M1272,361l-38,17l92,14L1272,361z"/>
<path opacity="0.65" fill="#0568A3" stroke="#FFFFFF" stroke-width="0.51" d="M1210,890l100,149l19-26L1210,890z"/>
<path opacity="0.65" fill="#056CAA" stroke="#FFFFFF" stroke-width="0.51" d="M1210,890l-71,60l171,89L1210,890z"/>
<path opacity="0.65" fill="#91A9D0" stroke="#FFFFFF" stroke-width="0.51" d="M1160-53l100,122l40-117L1160-53z"/>
<path opacity="0.65" fill="#95ADD3" stroke="#FFFFFF" stroke-width="0.51" d="M1182-154l-22,101l140,5L1182-154z"/>
<path opacity="0.65" fill="#4A89BC" stroke="#FFFFFF" stroke-width="0.51" d="M1194,490l86,152l21-120L1194,490z"/>
<path opacity="0.65" fill="#2B80B6" stroke="#FFFFFF" stroke-width="0.51" d="M1280,642l-115,59l141,41L1280,642z"/>
<path opacity="0.65" fill="#096AA5" stroke="#FFFFFF" stroke-width="0.51" d="M1139,950l-1,111l172-22L1139,950z"/>
<path opacity="0.65" fill="#7298C5" stroke="#FFFFFF" stroke-width="0.51" d="M1163,279l109,82l17-110L1163,279z"/>
<path opacity="0.65" fill="#217DB7" stroke="#FFFFFF" stroke-width="0.51" d="M1165,701l25,101l116-60L1165,701z"/>
<path opacity="0.65" fill="#075B8E" stroke="#FFFFFF" stroke-width="0.51" d="M1138,1061l64,189l45-11L1138,1061z"/>
<path opacity="0.8" fill="#1B648F" stroke="#FFFFFF" stroke-width="0.51" d="M1016,1168l-200,63l386,19L1016,1168z"/>
<path opacity="0.65" fill="#6D96C6" stroke="#FFFFFF" stroke-width="0.51" d="M1163,279l71,99l38-17L1163,279z"/>
<path opacity="0.65" fill="#448ABF" stroke="#FFFFFF" stroke-width="0.51" d="M1194,490l-89,149l175,3L1194,490z"/>
<path opacity="0.65" fill="#7A9DCA" stroke="#FFFFFF" stroke-width="0.51" d="M1156,210l7,69l126-28L1156,210z"/>
<path opacity="0.65" fill="#3686BC" stroke="#FFFFFF" stroke-width="0.51" d="M1105,639l60,62l115-59L1105,639z"/>
<path opacity="0.65" fill="#8EA8D1" stroke="#FFFFFF" stroke-width="0.51" d="M1160-53l27,156l73-34L1160-53z"/>
<path opacity="0.65" fill="#1074B1" stroke="#FFFFFF" stroke-width="0.51" d="M1190,802l20,88l53-19L1190,802z"/>
<path opacity="0.8" fill="#91ACD3" stroke="#FFFFFF" stroke-width="0.51" d="M1160-53l-58,117l85,39L1160-53z"/>
<path opacity="0.8" fill="#116294" stroke="#FFFFFF" stroke-width="0.51" d="M1138,1061l-86,100l150,89L1138,1061z"/>
<path opacity="0.65" fill="#6295C5" stroke="#FFFFFF" stroke-width="0.51" d="M1117,404l77,86l40-112L1117,404z"/>
<path opacity="0.65" fill="#6E99C7" stroke="#FFFFFF" stroke-width="0.51" d="M1163,279l-46,125l117-26L1163,279z"/>
<path opacity="0.8" fill="#176B9F" stroke="#FFFFFF" stroke-width="0.51" d="M1090,1076l-38,85l86-100L1090,1076z"/>
<path opacity="0.8" fill="#99B2D6" stroke="#FFFFFF" stroke-width="0.51" d="M1123-98l37,45l22-101L1123-98z"/>
<path opacity="0.8" fill="#4C91C2" stroke="#FFFFFF" stroke-width="0.51" d="M1050,582l55,57l89-149L1050,582z"/>
<path opacity="0.8" fill="#156191" stroke="#FFFFFF" stroke-width="0.51" d="M1052,1161l-36,7l186,82L1052,1161z"/>
<path opacity="0.65" fill="#1676B3" stroke="#FFFFFF" stroke-width="0.51" d="M1190,802l-126,119l146-31L1190,802z"/>
<path opacity="0.65" fill="#1374B0" stroke="#FFFFFF" stroke-width="0.51" d="M1064,921l75,29l71-60L1064,921z"/>
<path opacity="0.8" fill="#146FA8" stroke="#FFFFFF" stroke-width="0.51" d="M1096,1016l42,45l1-111L1096,1016z"/>
<path opacity="0.8" fill="#9DB8D8" stroke="#FFFFFF" stroke-width="0.51" d="M978-113l145,15l59-56L978-113z"/>
<path opacity="0.8" fill="#88A6CF" stroke="#FFFFFF" stroke-width="0.51" d="M1057,175l99,35l31-107L1057,175z"/>
<path opacity="0.8" fill="#8DAAD1" stroke="#FFFFFF" stroke-width="0.51" d="M1102,64l-45,111l130-72L1102,64z"/>
<path opacity="0.8" fill="#227DB7" stroke="#FFFFFF" stroke-width="0.51" d="M1047,774l17,147l126-119L1047,774z"/>
<path opacity="0.8" fill="#2782B9" stroke="#FFFFFF" stroke-width="0.51" d="M1165,701l-118,73l143,28L1165,701z"/>
<path opacity="0.8" fill="#6098C6" stroke="#FFFFFF" stroke-width="0.51" d="M1117,404l-111,80l188,6L1117,404z"/>
<path opacity="0.8" fill="#5796C5" stroke="#FFFFFF" stroke-width="0.51" d="M1006,484l44,98l144-92L1006,484z"/>
<path opacity="0.8" fill="#96B1D5" stroke="#FFFFFF" stroke-width="0.51" d="M1055,0l47,64l58-117L1055,0z"/>
<path opacity="0.8" fill="#739FCA" stroke="#FFFFFF" stroke-width="0.51" d="M1038,330l79,74l46-125L1038,330z"/>
<path opacity="0.8" fill="#81A3CD" stroke="#FFFFFF" stroke-width="0.51" d="M1156,210l-99-35l106,104L1156,210z"/>
<path opacity="0.8" fill="#7EA4CD" stroke="#FFFFFF" stroke-width="0.51" d="M1057,175l-19,155l125-51L1057,175z"/>
<path opacity="0.8" fill="#3188BD" stroke="#FFFFFF" stroke-width="0.51" d="M1105,639l-58,135l118-73L1105,639z"/>
<path opacity="0.8" fill="#318BBE" stroke="#FFFFFF" stroke-width="0.51" d="M1020,741l27,33l58-135L1020,741z"/>
<path opacity="0.8" fill="#99B3D6" stroke="#FFFFFF" stroke-width="0.51" d="M1123-98l-68,98l105-53L1123-98z"/>
<path opacity="0.8" fill="#166EA5" stroke="#FFFFFF" stroke-width="0.51" d="M1096,1016l-6,60l48-15L1096,1016z"/>
<path opacity="0.8" fill="#1874AD" stroke="#FFFFFF" stroke-width="0.51" d="M1064,921l32,95l43-66L1064,921z"/>
<path opacity="0.8" fill="#9CB9D9" stroke="#FFFFFF" stroke-width="0.51" d="M978-113l77,113l68-98L978-113z"/>
<path opacity="0.8" fill="#72A1CB" stroke="#FFFFFF" stroke-width="0.51" d="M1038,330l-34,16l113,58L1038,330z"/>
<path opacity="0.8" fill="#6B9FCA" stroke="#FFFFFF" stroke-width="0.51" d="M1004,346l2,138l111-80L1004,346z"/>
<path opacity="0.8" fill="#91B1D4" stroke="#FFFFFF" stroke-width="0.51" d="M930,100l127,75l45-111L930,100z"/>
<path opacity="0.8" fill="#3F8FC0" stroke="#FFFFFF" stroke-width="0.51" d="M1050,582l-30,159l85-102L1050,582z"/>
<path opacity="0.8" fill="#95B5D6" stroke="#FFFFFF" stroke-width="0.51" d="M1055,0L930,100l172-36L1055,0z"/>
<path opacity="0.8" fill="#4593C2" stroke="#FFFFFF" stroke-width="0.51" d="M951,608l69,133l30-159L951,608z"/>
<path opacity="0.8" fill="#85ACD0" stroke="#FFFFFF" stroke-width="0.51" d="M928,215l110,115l19-155L928,215z"/>
<path opacity="0.8" fill="#2580B9" stroke="#FFFFFF" stroke-width="0.51" d="M1047,774L942,897l122,24L1047,774z"/>
<path opacity="0.8" fill="#1E74A8" stroke="#FFFFFF" stroke-width="0.51" d="M923,1022l167,54l6-60L923,1022z"/>
<path opacity="0.8" fill="#1F77AD" stroke="#FFFFFF" stroke-width="0.51" d="M1064,921l-141,101l173-6L1064,921z"/>
<path opacity="0.8" fill="#B1C8E1" stroke="#FFFFFF" stroke-width="0.51" d="M689-137l143,60l146-36L689-137z"/>
<path opacity="0.8" fill="#1A6A9A" stroke="#FFFFFF" stroke-width="0.51" d="M1016,1168l36-7l38-85L1016,1168z"/>
<path opacity="0.8" fill="#1F6FA1" stroke="#FFFFFF" stroke-width="0.51" d="M921,1069l95,99l74-92L921,1069z"/>
<path opacity="0.8" fill="#2376A8" stroke="#FFFFFF" stroke-width="0.51" d="M923,1022l-2,47l169,7L923,1022z"/>
<path opacity="0.8" fill="#7EA9D0" stroke="#FFFFFF" stroke-width="0.51" d="M928,215l76,131l34-16L928,215z"/>
<path opacity="0.8" fill="#9AB9D8" stroke="#FFFFFF" stroke-width="0.51" d="M965-17l-35,117L1055,0L965-17z"/>
<path opacity="0.8" fill="#9EBBDA" stroke="#FFFFFF" stroke-width="0.51" d="M978-113l-13,96l90,17L978-113z"/>
<path opacity="0.8" fill="#267DB3" stroke="#FFFFFF" stroke-width="0.51" d="M942,897l-19,125l141-101L942,897z"/>
<path opacity="0.8" fill="#3188BC" stroke="#FFFFFF" stroke-width="0.51" d="M910,777l32,120l105-123L910,777z"/>
<path opacity="0.8" fill="#599CC7" stroke="#FFFFFF" stroke-width="0.51" d="M1006,484l-81,56l125,42L1006,484z"/>
<path opacity="0.8" fill="#90B2D4" stroke="#FFFFFF" stroke-width="0.51" d="M930,100l-2,115l129-40L930,100z"/>
<path opacity="0.8" fill="#539AC7" stroke="#FFFFFF" stroke-width="0.51" d="M925,540l26,68l99-26L925,540z"/>
<path opacity="0.8" fill="#2C6D98" stroke="#FFFFFF" stroke-width="0.51" d="M913,1136l-97,95l200-63L913,1136z"/>
<path opacity="0.8" fill="#328BBE" stroke="#FFFFFF" stroke-width="0.51" d="M1020,741l-110,36l137-3L1020,741z"/>
<path opacity="0.8" fill="#27729F" stroke="#FFFFFF" stroke-width="0.51" d="M921,1069l-8,67l103,32L921,1069z"/>
<path opacity="0.8" fill="#85ADD2" stroke="#FFFFFF" stroke-width="0.51" d="M928,215l-30,37l106,94L928,215z"/>
<path fill="#437195" stroke="#FFFFFF" stroke-width="0.51" d="M747,1221l-140,33l209-23L747,1221z"/>
<path opacity="0.8" fill="#72A5CD" stroke="#FFFFFF" stroke-width="0.51" d="M1004,346l-148,35l150,103L1004,346z"/>
<path opacity="0.8" fill="#4695C3" stroke="#FFFFFF" stroke-width="0.51" d="M951,608l-85,70l154,63L951,608z"/>
<path opacity="0.8" fill="#3E91C1" stroke="#FFFFFF" stroke-width="0.51" d="M866,678l44,99l110-36L866,678z"/>
<path opacity="0.8" fill="#6BA3CC" stroke="#FFFFFF" stroke-width="0.51" d="M856,381l69,159l81-56L856,381z"/>
<path opacity="0.8" fill="#81ACD1" stroke="#FFFFFF" stroke-width="0.51" d="M898,252l-42,129l148-35L898,252z"/>
<path opacity="0.8" fill="#71A6CD" stroke="#FFFFFF" stroke-width="0.51" d="M856,381l-32,122l101,37L856,381z"/>
<path opacity="0.8" fill="#3989BD" stroke="#FFFFFF" stroke-width="0.51" d="M910,777l-33,66l65,54L910,777z"/>
<path opacity="0.8" fill="#9EBBD9" stroke="#FFFFFF" stroke-width="0.51" d="M846,85l84,15l35-117L846,85z"/>
<path opacity="0.8" fill="#A6C1DD" stroke="#FFFFFF" stroke-width="0.51" d="M832-77l133,60l13-96L832-77z"/>
<path opacity="0.8" fill="#3580B4" stroke="#FFFFFF" stroke-width="0.51" d="M827,979l96,43l19-125L827,979z"/>
<path opacity="0.8" fill="#A5C0DC" stroke="#FFFFFF" stroke-width="0.51" d="M818-21l28,106L965-17L818-21z"/>
<path opacity="0.8" fill="#A9C3DE" stroke="#FFFFFF" stroke-width="0.51" d="M832-77l-14,56l147,4L832-77z"/>
<path opacity="0.8" fill="#89B0D3" stroke="#FFFFFF" stroke-width="0.51" d="M824,296l32,85l42-129L824,296z"/>
<path opacity="0.8" fill="#9AB8D7" stroke="#FFFFFF" stroke-width="0.51" d="M846,85l82,130l2-115L846,85z"/>
<path opacity="0.8" fill="#569BC6" stroke="#FFFFFF" stroke-width="0.51" d="M925,540l-59,138l85-70L925,540z"/>
<path opacity="0.8" fill="#5F9FCA" stroke="#FFFFFF" stroke-width="0.51" d="M803,553l63,125l59-138L803,553z"/>
<path opacity="0.8" fill="#3985BB" stroke="#FFFFFF" stroke-width="0.51" d="M877,843l-50,136l115-82L877,843z"/>
<path opacity="0.8" fill="#9DB9D9" stroke="#FFFFFF" stroke-width="0.51" d="M846,85l-106,94l158,73L846,85z"/>
<path opacity="0.8" fill="#96B5D6" stroke="#FFFFFF" stroke-width="0.51" d="M846,85l52,167l30-37L846,85z"/>
<path opacity="0.8" fill="#3478A6" stroke="#FFFFFF" stroke-width="0.51" d="M792,1095l121,41l8-67L792,1095z"/>
<path opacity="0.8" fill="#347CAE" stroke="#FFFFFF" stroke-width="0.51" d="M827,979l94,90l2-47L827,979z"/>
<path opacity="0.8" fill="#6AA4CD" stroke="#FFFFFF" stroke-width="0.51" d="M824,503l-21,50l122-13L824,503z"/>
<path opacity="0.8" fill="#3B7DAD" stroke="#FFFFFF" stroke-width="0.51" d="M827,979l-35,116l129-26L827,979z"/>
<path opacity="0.8" fill="#4995C4" stroke="#FFFFFF" stroke-width="0.51" d="M866,678l-69,66l113,33L866,678z"/>
<path opacity="0.8" fill="#38749E" stroke="#FFFFFF" stroke-width="0.51" d="M792,1095l24,136l97-95L792,1095z"/>
<path opacity="0.8" fill="#4086BA" stroke="#FFFFFF" stroke-width="0.51" d="M781,953l46,26l50-136L781,953z"/>
<path opacity="0.8" fill="#4590C1" stroke="#FFFFFF" stroke-width="0.51" d="M797,744l80,99l33-66L797,744z"/>
<path opacity="0.8" fill="#96B5D6" stroke="#FFFFFF" stroke-width="0.51" d="M740,179l84,117l74-44L740,179z"/>
<path opacity="0.8" fill="#7EACD1" stroke="#FFFFFF" stroke-width="0.51" d="M759,392l65,111l32-122L759,392z"/>
<path opacity="0.8" fill="#5E9EC9" stroke="#FFFFFF" stroke-width="0.51" d="M803,553l-45,148l108-23L803,553z"/>
<path opacity="0.8" fill="#4C91C2" stroke="#FFFFFF" stroke-width="0.51" d="M797,744L696,867l181-24L797,744z"/>
<path opacity="0.8" fill="#488BBF" stroke="#FFFFFF" stroke-width="0.51" d="M696,867l85,86l96-110L696,867z"/>
<path opacity="0.8" fill="#539AC6" stroke="#FFFFFF" stroke-width="0.51" d="M758,701l39,43l69-66L758,701z"/>
<path fill="#3E739C" stroke="#FFFFFF" stroke-width="0.51" d="M792,1095l-45,126l69,10L792,1095z"/>
<path opacity="0.8" fill="#AAC3DE" stroke="#FFFFFF" stroke-width="0.51" d="M818-21L731,79l115,6L818-21z"/>
<path opacity="0.8" fill="#A8C0DD" stroke="#FFFFFF" stroke-width="0.51" d="M731,79l9,100l106-94L731,79z"/>
<path opacity="0.8" fill="#88B0D3" stroke="#FFFFFF" stroke-width="0.51" d="M824,296l-65,96l97-11L824,296z"/>
<path fill="#98B7D8" stroke="#FFFFFF" stroke-width="0.51" d="M740,179l8,122l76-5L740,179z"/>
<path fill="#8FB3D5" stroke="#FFFFFF" stroke-width="0.51" d="M748,301l11,91l65-96L748,301z"/>
<path opacity="0.8" fill="#B5CAE3" stroke="#FFFFFF" stroke-width="0.51" d="M689-137l104,89l39-29L689-137z"/>
<path opacity="0.8" fill="#AFC6E0" stroke="#FFFFFF" stroke-width="0.51" d="M793-48l25,27l14-56L793-48z"/>
<path fill="#BACDE3" stroke="#FFFFFF" stroke-width="0.51" d="M689-137l10,56l94,33L689-137z"/>
<path opacity="0.8" fill="#4282B3" stroke="#FFFFFF" stroke-width="0.51" d="M781,953l11,142l35-116L781,953z"/>
<path fill="#AFC6E0" stroke="#FFFFFF" stroke-width="0.51" d="M793-48L731,79l87-100L793-48z"/>
<path fill="#78A9CF" stroke="#FFFFFF" stroke-width="0.51" d="M759,392l44,161l21-50L759,392z"/>
<path fill="#4882B1" stroke="#FFFFFF" stroke-width="0.51" d="M781,953l-110,132l121,10L781,953z"/>
<path fill="#64A1CA" stroke="#FFFFFF" stroke-width="0.51" d="M681,693l77,8l45-148L681,693z"/>
<path fill="#80ADD1" stroke="#FFFFFF" stroke-width="0.51" d="M759,392L613,503l190,50L759,392z"/>
<path fill="#508CBF" stroke="#FFFFFF" stroke-width="0.51" d="M696,867l-11,51l96,35L696,867z"/>
<path fill="#467BA5" stroke="#FFFFFF" stroke-width="0.51" d="M671,1085l76,136l45-126L671,1085z"/>
<path fill="#B4C9E1" stroke="#FFFFFF" stroke-width="0.51" d="M699-81l32,160l62-127L699-81z"/>
<path fill="#5598C5" stroke="#FFFFFF" stroke-width="0.51" d="M758,701l-62,166l101-123L758,701z"/>
<path fill="#74A8CE" stroke="#FFFFFF" stroke-width="0.51" d="M613,503l68,190l122-140L613,503z"/>
<path fill="#9FBAD9" stroke="#FFFFFF" stroke-width="0.51" d="M740,179l-56,82l64,40L740,179z"/>
<path fill="#5C9BC7" stroke="#FFFFFF" stroke-width="0.51" d="M681,693l15,174l62-166L681,693z"/>
<path fill="#8BB2D5" stroke="#FFFFFF" stroke-width="0.51" d="M608,453l5,50l146-111L608,453z"/>
<path fill="#4F88B8" stroke="#FFFFFF" stroke-width="0.51" d="M685,918l-14,167l110-132L685,918z"/>
<path fill="#5689B8" stroke="#FFFFFF" stroke-width="0.51" d="M596,992l75,93l14-167L596,992z"/>
<path fill="#619BC8" stroke="#FFFFFF" stroke-width="0.51" d="M681,693l-77,66l92,108L681,693z"/>
<path fill="#BACBE3" stroke="#FFFFFF" stroke-width="0.51" d="M699-81L580,1l151,78L699-81z"/>
<path fill="#93B5D7" stroke="#FFFFFF" stroke-width="0.51" d="M748,301l-99,40l110,51L748,301z"/>
<path fill="#92B4D6" stroke="#FFFFFF" stroke-width="0.51" d="M649,341l-41,112l151-61L649,341z"/>
<path fill="#C1CFE5" stroke="#FFFFFF" stroke-width="0.51" d="M608-63L580,1l119-82L608-63z"/>
<path fill="#AEC2DE" stroke="#FFFFFF" stroke-width="0.51" d="M731,79l-123,51l132,49L731,79z"/>
<path fill="#4C789E" stroke="#FFFFFF" stroke-width="0.51" d="M671,1085l-64,169l140-33L671,1085z"/>
<path fill="#9BB9D9" stroke="#FFFFFF" stroke-width="0.51" d="M684,261l-35,80l99-40L684,261z"/>
<path fill="#547DA4" stroke="#FFFFFF" stroke-width="0.51" d="M572,1135l35,119l64-169L572,1135z"/>
<path fill="#BBCAE2" stroke="#FFFFFF" stroke-width="0.51" d="M580,1l-6,47l157,31L580,1z"/>
<path fill="#AABFDD" stroke="#FFFFFF" stroke-width="0.51" d="M608,130l76,131l56-82L608,130z"/>
<path fill="#567A9F" stroke="#FFFFFF" stroke-width="0.51" d="M572,1135l-10,59l45,60L572,1135z"/>
<path fill="#75A8CE" stroke="#FFFFFF" stroke-width="0.51" d="M613,503l-29,190h97L613,503z"/>
<path fill="#B7C8E1" stroke="#FFFFFF" stroke-width="0.51" d="M574,48l34,82l123-51L574,48z"/>
<path fill="#C0D0E5" stroke="#FFFFFF" stroke-width="0.51" d="M689-137l-81,74l91-18L689-137z"/>
<path fill="#5D91C3" stroke="#FFFFFF" stroke-width="0.51" d="M508,904l177,14l11-51L508,904z"/>
<path fill="#6397C6" stroke="#FFFFFF" stroke-width="0.51" d="M604,759l-96,145l188-37L604,759z"/>
<path fill="#B1C2DE" stroke="#FFFFFF" stroke-width="0.51" d="M608,130l-88,60l164,71L608,130z"/>
<path fill="#C5D2E7" stroke="#FFFFFF" stroke-width="0.51" d="M570-135l38,72l81-74L570-135z"/>
<path fill="#69A2CB" stroke="#FFFFFF" stroke-width="0.51" d="M584,693l20,66l77-66H584z"/>
<path fill="#A1BBDA" stroke="#FFFFFF" stroke-width="0.51" d="M546,323l103,18l35-80L546,323z"/>
<path fill="#ABC0DD" stroke="#FFFFFF" stroke-width="0.51" d="M520,190l26,133l138-62L520,190z"/>
<path fill="#5D8DBD" stroke="#FFFFFF" stroke-width="0.51" d="M542,964l54,28l89-74L542,964z"/>
<path fill="#6291C1" stroke="#FFFFFF" stroke-width="0.51" d="M508,904l34,60l143-46L508,904z"/>
<path fill="#82ADD1" stroke="#FFFFFF" stroke-width="0.51" d="M483,585l101,108l29-190L483,585z"/>
<path fill="#5987B1" stroke="#FFFFFF" stroke-width="0.51" d="M596,992l-24,143l99-50L596,992z"/>
<path fill="#6C9CC9" stroke="#FFFFFF" stroke-width="0.51" d="M547,750l-39,154l96-145L547,750z"/>
<path fill="#9CB9D9" stroke="#FFFFFF" stroke-width="0.51" d="M546,323l62,130l41-112L546,323z"/>
<path fill="#648CB8" stroke="#FFFFFF" stroke-width="0.51" d="M542,964l-81,24l111,147L542,964z"/>
<path fill="#5F8BB7" stroke="#FFFFFF" stroke-width="0.51" d="M542,964l30,171l24-143L542,964z"/>
<path fill="#6DA2CC" stroke="#FFFFFF" stroke-width="0.51" d="M584,693l-37,57l57,9L584,693z"/>
<path fill="#5B7A9A" stroke="#FFFFFF" stroke-width="0.51" d="M562,1194l-200,59l245,1L562,1194z"/>
<path fill="#9BB8D8" stroke="#FFFFFF" stroke-width="0.51" d="M546,323l-11,145l73-15L546,323z"/>
<path fill="#90B3D5" stroke="#FFFFFF" stroke-width="0.51" d="M608,453l-73,15l78,35L608,453z"/>
<path fill="#8DB3D5" stroke="#FFFFFF" stroke-width="0.51" d="M535,468l-52,117l130-82L535,468z"/>
<path fill="#D8DBEB" stroke="#FFFFFF" stroke-width="0.51" d="M311-133l92,55l167-57L311-133z"/>
<path fill="#C9D2E7" stroke="#FFFFFF" stroke-width="0.51" d="M457-64L580,1l28-64L457-64z"/>
<path fill="#CBD5E9" stroke="#FFFFFF" stroke-width="0.51" d="M570-135L457-64l151,1L570-135z"/>
<path fill="#BFCBE3" stroke="#FFFFFF" stroke-width="0.51" d="M574,48L464,95l144,35L574,48z"/>
<path fill="#BDC9E2" stroke="#FFFFFF" stroke-width="0.51" d="M464,95l56,95l88-60L464,95z"/>
<path fill="#A1BADA" stroke="#FFFFFF" stroke-width="0.51" d="M455,425l80,43l11-145L455,425z"/>
<path fill="#719DCA" stroke="#FFFFFF" stroke-width="0.51" d="M442,817l66,87l39-154L442,817z"/>
<path fill="#637E9F" stroke="#FFFFFF" stroke-width="0.51" d="M397,1188l-35,65l200-59L397,1188z"/>
<path fill="#688DB6" stroke="#FFFFFF" stroke-width="0.51" d="M461,988l-47,49l158,98L461,988z"/>
<path fill="#79A8CF" stroke="#FFFFFF" stroke-width="0.51" d="M483,585l64,165l37-57L483,585z"/>
<path fill="#EAE6F1" stroke="#FFFFFF" stroke-width="0.51" d="M76-147l134,27l101-13L76-147z"/>
<path fill="#D2D8EA" stroke="#FFFFFF" stroke-width="0.51" d="M403-78l54,14l113-71L403-78z"/>
<path fill="#C9D1E6" stroke="#FFFFFF" stroke-width="0.51" d="M457-64l7,159l110-47L457-64z"/>
<path fill="#C8D1E6" stroke="#FFFFFF" stroke-width="0.51" d="M457-64L574,48l6-47L457-64z"/>
<path fill="#B4C3DF" stroke="#FFFFFF" stroke-width="0.51" d="M520,190l-95,73l121,60L520,190z"/>
<path fill="#83ADD2" stroke="#FFFFFF" stroke-width="0.51" d="M483,585l-71,29l135,136L483,585z"/>
<path fill="#5F80A4" stroke="#FFFFFF" stroke-width="0.51" d="M397,1188l165,6l10-59L397,1188z"/>
<path fill="#6787AE" stroke="#FFFFFF" stroke-width="0.51" d="M414,1037l-17,151l175-53L414,1037z"/>
<path fill="#94B5D7" stroke="#FFFFFF" stroke-width="0.51" d="M443,498l40,87l52-117L443,498z"/>
<path fill="#ABBFDC" stroke="#FFFFFF" stroke-width="0.51" d="M393,324l62,101l91-102L393,324z"/>
<path fill="#76A2CC" stroke="#FFFFFF" stroke-width="0.51" d="M415,792l27,25l105-67L415,792z"/>
<path fill="#7CA9CF" stroke="#FFFFFF" stroke-width="0.51" d="M412,614l3,178l132-42L412,614z"/>
<path fill="#B3C3DE" stroke="#FFFFFF" stroke-width="0.51" d="M425,263l-32,61l153-1L425,263z"/>
<path fill="#6992C0" stroke="#FFFFFF" stroke-width="0.51" d="M508,904l-47,84l81-24L508,904z"/>
<path fill="#9CB9D8" stroke="#FFFFFF" stroke-width="0.51" d="M455,425l-12,73l92-30L455,425z"/>
<path fill="#C0C9E2" stroke="#FFFFFF" stroke-width="0.51" d="M464,95l-39,168l95-73L464,95z"/>
<path fill="#6F97C6" stroke="#FFFFFF" stroke-width="0.51" d="M442,817l19,171l47-84L442,817z"/>
<path fill="#83ACD1" stroke="#FFFFFF" stroke-width="0.51" d="M412,614l-78,124l81,54L412,614z"/>
<path fill="#D7D9EB" stroke="#FFFFFF" stroke-width="0.51" d="M403-78l-77,89l131-75L403-78z"/>
<path fill="#7497C4" stroke="#FFFFFF" stroke-width="0.51" d="M442,817l-127,195l146-24L442,817z"/>
<path fill="#D1D6E9" stroke="#FFFFFF" stroke-width="0.51" d="M457-64L326,11l138,84L457-64z"/>
<path fill="#C7CDE4" stroke="#FFFFFF" stroke-width="0.51" d="M327,121l98,142l39-168L327,121z"/>
<path fill="#92B4D6" stroke="#FFFFFF" stroke-width="0.51" d="M443,498l-31,116l71-29L443,498z"/>
<path fill="#7D9ECA" stroke="#FFFFFF" stroke-width="0.51" d="M264,836l51,176l127-195L264,836z"/>
<path fill="#7293BD" stroke="#FFFFFF" stroke-width="0.51" d="M315,1012l99,25l47-49L315,1012z"/>
<path fill="#D1D3E8" stroke="#FFFFFF" stroke-width="0.51" d="M326,11l1,110l137-26L326,11z"/>
<path fill="#7EA3CD" stroke="#FFFFFF" stroke-width="0.51" d="M415,792l-151,44l178-19L415,792z"/>
<path fill="#95B5D7" stroke="#FFFFFF" stroke-width="0.51" d="M340,605l72,9l31-116L340,605z"/>
<path fill="#A4BCDB" stroke="#FFFFFF" stroke-width="0.51" d="M270,484l173,14l12-73L270,484z"/>
<path fill="#CACEE5" stroke="#FFFFFF" stroke-width="0.51" d="M327,121l-34,35l132,107L327,121z"/>
<path fill="#ADC0DD" stroke="#FFFFFF" stroke-width="0.51" d="M393,324L270,484l185-59L393,324z"/>
<path fill="#B6C4DF" stroke="#FFFFFF" stroke-width="0.51" d="M297,323l-27,161l123-160L297,323z"/>
<path fill="#718CB1" stroke="#FFFFFF" stroke-width="0.51" d="M279,1111l118,77l17-151L279,1111z"/>
<path fill="#A6BDDB" stroke="#FFFFFF" stroke-width="0.51" d="M270,484l6,25l167-11L270,484z"/>
<path fill="#9EBAD9" stroke="#FFFFFF" stroke-width="0.51" d="M276,509l64,96l103-107L276,509z"/>
<path fill="#8EB1D4" stroke="#FFFFFF" stroke-width="0.51" d="M340,605l-6,133l78-124L340,605z"/>
<path fill="#7792B9" stroke="#FFFFFF" stroke-width="0.51" d="M315,1012l-36,99l135-74L315,1012z"/>
<path fill="#BAC6E1" stroke="#FFFFFF" stroke-width="0.51" d="M297,323l96,1l32-61L297,323z"/>
<path fill="#C4CBE3" stroke="#FFFFFF" stroke-width="0.51" d="M293,156l4,167l128-60L293,156z"/>
<path fill="#83A7CF" stroke="#FFFFFF" stroke-width="0.51" d="M334,738l-70,98l151-44L334,738z"/>
<path fill="#DCDCEC" stroke="#FFFFFF" stroke-width="0.51" d="M311-133l15,144l77-89L311-133z"/>
<path fill="#6E85A6" stroke="#FFFFFF" stroke-width="0.51" d="M279,1111l83,142l35-65L279,1111z"/>
<path fill="#CDCFE5" stroke="#FFFFFF" stroke-width="0.51" d="M293,156l-49,17l53,150L293,156z"/>
<path fill="#92B2D5" stroke="#FFFFFF" stroke-width="0.51" d="M192,696l142,42l6-133L192,696z"/>
<path fill="#7386A5" stroke="#FFFFFF" stroke-width="0.51" d="M279,1111l-111,131l194,11L279,1111z"/>
<path fill="#BAC7E1" stroke="#FFFFFF" stroke-width="0.51" d="M219,339l51,145l27-161L219,339z"/>
<path fill="#E4E1EF" stroke="#FFFFFF" stroke-width="0.51" d="M210-120l13,138l88-151L210-120z"/>
<path fill="#839FC8" stroke="#FFFFFF" stroke-width="0.51" d="M264,836L145,944l170,68L264,836z"/>
<path fill="#7B94BB" stroke="#FFFFFF" stroke-width="0.51" d="M245,1046l34,65l36-99L245,1046z"/>
<path fill="#DFDDED" stroke="#FFFFFF" stroke-width="0.51" d="M311-133L223,18l103-7L311-133z"/>
<path fill="#DAD8EB" stroke="#FFFFFF" stroke-width="0.51" d="M326,11l-103,7l104,103L326,11z"/>
<path fill="#D9D8E9" stroke="#FFFFFF" stroke-width="0.51" d="M223,18l-8,100l112,3L223,18z"/>
<path fill="#89AAD1" stroke="#FFFFFF" stroke-width="0.51" d="M220,798l44,38l70-98L220,798z"/>
<path fill="#9DB9D9" stroke="#FFFFFF" stroke-width="0.51" d="M276,509l-84,187l148-91L276,509z"/>
<path fill="#B9C7E1" stroke="#FFFFFF" stroke-width="0.51" d="M219,339l-37,48l88,97L219,339z"/>
<path fill="#819AC2" stroke="#FFFFFF" stroke-width="0.51" d="M145,944l100,102l70-34L145,944z"/>
<path fill="#8EAFD3" stroke="#FFFFFF" stroke-width="0.51" d="M192,696l28,102l114-60L192,696z"/>
<path fill="#88A5CE" stroke="#FFFFFF" stroke-width="0.51" d="M214,835l-69,109l119-108L214,835z"/>
<path fill="#A4BDDB" stroke="#FFFFFF" stroke-width="0.51" d="M148,535l44,161l84-187L148,535z"/>
<path fill="#C7CDE4" stroke="#FFFFFF" stroke-width="0.51" d="M244,173l-25,166l78-16L244,173z"/>
<path fill="#D4D4E8" stroke="#FFFFFF" stroke-width="0.51" d="M215,118l78,38l34-35L215,118z"/>
<path fill="#D5D4E8" stroke="#FFFFFF" stroke-width="0.51" d="M215,118l29,55l49-17L215,118z"/>
<path fill="#CED1E6" stroke="#FFFFFF" stroke-width="0.51" d="M123,226l96,113l25-166L123,226z"/>
<path fill="#7A8FB1" stroke="#FFFFFF" stroke-width="0.51" d="M245,1046l-77,196l111-131L245,1046z"/>
<path fill="#ABC1DD" stroke="#FFFFFF" stroke-width="0.51" d="M270,484l-122,51l128-26L270,484z"/>
<path fill="#7F92B2" stroke="#FFFFFF" stroke-width="0.51" d="M38,1131l130,111l77-196L38,1131z"/>
<path fill="#B3C5DF" stroke="#FFFFFF" stroke-width="0.51" d="M182,387l-34,148l122-51L182,387z"/>
<path fill="#8AA8D0" stroke="#FFFFFF" stroke-width="0.51" d="M220,798l-6,37l50,1L220,798z"/>
<path fill="#E5E2EF" stroke="#FFFFFF" stroke-width="0.51" d="M210-120L130-3l93,21L210-120z"/>
<path fill="#DEDCEC" stroke="#FFFFFF" stroke-width="0.51" d="M131,66l84,52l8-100L131,66z"/>
<path fill="#869EC5" stroke="#FFFFFF" stroke-width="0.51" d="M145,944l-82,43l182,59L145,944z"/>
<path fill="#869CBF" stroke="#FFFFFF" stroke-width="0.51" d="M63,987l-25,144l207-85L63,987z"/>
<path fill="#D6D5E9" stroke="#FFFFFF" stroke-width="0.51" d="M215,118l-92,108l121-53L215,118z"/>
<path fill="#8091AE" stroke="#FFFFFF" stroke-width="0.51" d="M38,1131l-2,16l132,95L38,1131z"/>
<path fill="#B8C8E1" stroke="#FFFFFF" stroke-width="0.51" d="M87,441l61,94l34-148L87,441z"/>
<path fill="#A0BDDA" stroke="#FFFFFF" stroke-width="0.51" d="M148,535L75,694l117,2L148,535z"/>
<path fill="#C7CEE5" stroke="#FFFFFF" stroke-width="0.51" d="M123,226l59,161l37-48L123,226z"/>
<path fill="#91B1D4" stroke="#FFFFFF" stroke-width="0.51" d="M192,696L97,818l123-20L192,696z"/>
<path fill="#E3E0EE" stroke="#FFFFFF" stroke-width="0.51" d="M130-3l1,69l92-48L130-3z"/>
<path fill="#CCD2E6" stroke="#FFFFFF" stroke-width="0.51" d="M123,226l-78,75l137,86L123,226z"/>
<path fill="#95B4D6" stroke="#FFFFFF" stroke-width="0.51" d="M70,733l27,85l95-122L70,733z"/>
<path fill="#8CA8D0" stroke="#FFFFFF" stroke-width="0.51" d="M97,818l48,126l69-109L97,818z"/>
<path fill="#DBDAEB" stroke="#FFFFFF" stroke-width="0.51" d="M131,66l-8,160l92-108L131,66z"/>
<path fill="#8EABD1" stroke="#FFFFFF" stroke-width="0.51" d="M97,818l117,17l6-37L97,818z"/>
<path fill="#EBE6F2" stroke="#FFFFFF" stroke-width="0.51" d="M76-147L130-3l80-117L76-147z"/>
<path fill="#A8C1DD" stroke="#FFFFFF" stroke-width="0.51" d="M36,574l39,120l73-159L36,574z"/>
<path fill="#99B9D8" stroke="#FFFFFF" stroke-width="0.51" d="M75,694l-5,39l122-37L75,694z"/>
<path fill="#C3CEE4" stroke="#FFFFFF" stroke-width="0.51" d="M30,339l57,102l95-54L30,339z"/>
<path fill="#CAD1E6" stroke="#FFFFFF" stroke-width="0.51" d="M45,301l-15,38l152,48L45,301z"/>
<path fill="#E0DDED" stroke="#FFFFFF" stroke-width="0.51" d="M11,73l112,153l8-160L11,73z"/>
<path fill="#8190AB" stroke="#FFFFFF" stroke-width="0.51" d="M36,1147l-119,62l251,33L36,1147z"/>
<path fill="#F0EAF4" stroke="#FFFFFF" stroke-width="0.51" d="M76-147l-81,37L130-3L76-147z"/>
<path fill="#90AAD1" stroke="#FFFFFF" stroke-width="0.51" d="M97,818L1,863l144,81L97,818z"/>
<path fill="#8EA6CD" stroke="#FFFFFF" stroke-width="0.51" d="M1,863l62,124l82-43L1,863z"/>
<path fill="#B3C7E1" stroke="#FFFFFF" stroke-width="0.51" d="M87,441L36,574l112-39L87,441z"/>
<path fill="#DEDCEC" stroke="#FFFFFF" stroke-width="0.51" d="M11,73l-31,179l143-26L11,73z"/>
<path fill="#EFE9F4" stroke="#FFFFFF" stroke-width="0.51" d="M-5-110L-23,15L130-3L-5-110z"/>
<path fill="#E6E2EF" stroke="#FFFFFF" stroke-width="0.51" d="M130-3L11,73l120-7L130-3z"/>
<path fill="#EAE6F1" stroke="#FFFFFF" stroke-width="0.51" d="M-23,15l34,58L130-3L-23,15z"/>
<path fill="#D5D7EA" stroke="#FFFFFF" stroke-width="0.51" d="M-20,252l65,49l78-75L-20,252z"/>
<path fill="#F5EFF6" stroke="#FFFFFF" stroke-width="0.51" d="M-85-138l80,28l81-37L-85-138z"/>
<path fill="#BACBE3" stroke="#FFFFFF" stroke-width="0.51" d="M22,432l14,142l51-133L22,432z"/>
<path fill="#C4CFE5" stroke="#FFFFFF" stroke-width="0.51" d="M30,339l-8,93l65,9L30,339z"/>
<path fill="#98B6D7" stroke="#FFFFFF" stroke-width="0.51" d="M70,733l-63,8l90,77L70,733z"/>
<path fill="#97B2D6" stroke="#FFFFFF" stroke-width="0.51" d="M7,741L1,863l96-45L7,741z"/>
<path fill="#B6CAE2" stroke="#FFFFFF" stroke-width="0.51" d="M22,432l-56,118l70,24L22,432z"/>
<path fill="#8596B1" stroke="#FFFFFF" stroke-width="0.51" d="M-40,1152l-43,57l119-62L-40,1152z"/>
<path fill="#91A8CE" stroke="#FFFFFF" stroke-width="0.51" d="M1,863l-50,92l112,32L1,863z"/>
<path fill="#8A9EBF" stroke="#FFFFFF" stroke-width="0.51" d="M-40,1115l78,16l25-144L-40,1115z"/>
<path fill="#A7C1DD" stroke="#FFFFFF" stroke-width="0.51" d="M36,574l-110,83l149,37L36,574z"/>
<path fill="#8EA3C6" stroke="#FFFFFF" stroke-width="0.51" d="M-49,955l9,160L63,987L-49,955z"/>
<path fill="#A1BEDB" stroke="#FFFFFF" stroke-width="0.51" d="M-74,657l81,84l68-47L-74,657z"/>
<path fill="#9BBAD9" stroke="#FFFFFF" stroke-width="0.51" d="M7,741l63-8l5-39L7,741z"/>
<path fill="#E3E0EF" stroke="#FFFFFF" stroke-width="0.51" d="M-107,147l87,105L11,73L-107,147z"/>
<path fill="#8FA2C3" stroke="#FFFFFF" stroke-width="0.51" d="M-49,955l-37,127l46,33L-49,955z"/>
<path fill="#9AB5D7" stroke="#FFFFFF" stroke-width="0.51" d="M-79,780l80,83l6-122L-79,780z"/>
<path fill="#C8D2E7" stroke="#FFFFFF" stroke-width="0.51" d="M-76,403l98,29l8-93L-76,403z"/>
<path fill="#AFC6E0" stroke="#FFFFFF" stroke-width="0.51" d="M-34,550l-40,107l110-83L-34,550z"/>
<path fill="#D2D6E9" stroke="#FFFFFF" stroke-width="0.51" d="M-20,252l50,87l15-38L-20,252z"/>
<path fill="#8697B5" stroke="#FFFFFF" stroke-width="0.51" d="M-40,1152l76-5l2-16L-40,1152z"/>
<path fill="#8899B7" stroke="#FFFFFF" stroke-width="0.51" d="M-40,1115v37l78-21L-40,1115z"/>
<path fill="#91A6C9" stroke="#FFFFFF" stroke-width="0.51" d="M-79,967l-7,115l37-127L-79,967z"/>
<path fill="#C0CFE5" stroke="#FFFFFF" stroke-width="0.51" d="M-76,403l42,147l56-118L-76,403z"/>
<path fill="#D4D8EA" stroke="#FFFFFF" stroke-width="0.51" d="M-20,252l-87,51l137,36L-20,252z"/>
<path fill="#CFD6E9" stroke="#FFFFFF" stroke-width="0.51" d="M-107,303l31,100l106-64L-107,303z"/>
<path fill="#F4EDF5" stroke="#FFFFFF" stroke-width="0.51" d="M-85-138l62,153l18-125L-85-138z"/>
<path fill="#E9E5F1" stroke="#FFFFFF" stroke-width="0.51" d="M-23,15l-84,132L11,73L-23,15z"/>
<path fill="#F4EDF6" stroke="#FFFFFF" stroke-width="0.51" d="M-85-138l-71,123l133,30L-85-138z"/>
<path fill="#9FBDDB" stroke="#FFFFFF" stroke-width="0.51" d="M-74,657l-5,123l86-39L-74,657z"/>
<path fill="#95ACD2" stroke="#FFFFFF" stroke-width="0.51" d="M-138,917l89,38l50-92L-138,917z"/>
<path fill="#98B1D6" stroke="#FFFFFF" stroke-width="0.51" d="M-79,780l-59,137L1,863L-79,780z"/>
<path fill="#BCCEE4" stroke="#FFFFFF" stroke-width="0.51" d="M-76,403l-52,157l94-10L-76,403z"/>
<path fill="#E1E0EE" stroke="#FFFFFF" stroke-width="0.51" d="M-107,147l-59,43l59,113V147z"/>
<path fill="#B1C8E1" stroke="#FFFFFF" stroke-width="0.51" d="M-128,560l54,97l40-107L-128,560z"/>
<path fill="#EEE9F3" stroke="#FFFFFF" stroke-width="0.51" d="M-156-15l49,162l84-132L-156-15z"/>
<path fill="#DDDDED" stroke="#FFFFFF" stroke-width="0.51" d="M-107,147v156l87-51L-107,147z"/>
<path fill="#94AACE" stroke="#FFFFFF" stroke-width="0.51" d="M-138,917l59,50l30-12L-138,917z"/>
<path fill="#8999B5" stroke="#FFFFFF" stroke-width="0.51" d="M-86,1082l3,127l43-57L-86,1082z"/>
<path fill="#8A9CBA" stroke="#FFFFFF" stroke-width="0.51" d="M-86,1082l46,70v-37L-86,1082z"/>
<path fill="#A4C1DD" stroke="#FFFFFF" stroke-width="0.51" d="M-154,662l75,118l5-123L-154,662z"/>
<path fill="#93A8CB" stroke="#FFFFFF" stroke-width="0.51" d="M-138,917l52,165l7-115L-138,917z"/>
<path fill="#AFC7E0" stroke="#FFFFFF" stroke-width="0.51" d="M-128,560l-26,102l80-5L-128,560z"/>
<path fill="#C8D3E8" stroke="#FFFFFF" stroke-width="0.51" d="M-107,303l-21,257l52-157L-107,303z"/>
<path fill="#9FBADA" stroke="#FFFFFF" stroke-width="0.51" d="M-154,662l16,255l59-137L-154,662z"/>
<path fill="#8FA3C2" stroke="#FFFFFF" stroke-width="0.51" d="M-86,1082l-52-165l55,292L-86,1082z"/>
<path fill="#ECE7F2" stroke="#FFFFFF" stroke-width="0.51" d="M-156-15l-10,205l59-43L-156-15z"/>
<path fill="#D2D8EB" stroke="#FFFFFF" stroke-width="0.51" d="M-166,190l38,370l21-257L-166,190z"/>
<path fill="#C3D2E7" stroke="#FFFFFF" stroke-width="0.51" d="M-166,190l12,472l26-102L-166,190z"/>
</svg>
